<?xml version="1.0" standalone="no"?>
<!DOCTYPE svg PUBLIC "-//W3C//DTD SVG 20010904//EN"
 "http://www.w3.org/TR/2001/REC-SVG-20010904/DTD/svg10.dtd">
<svg version="1.0" xmlns="http://www.w3.org/2000/svg"
 width="1400.000000pt" height="787.000000pt" viewBox="0 0 1400.000000 787.000000"
 preserveAspectRatio="xMidYMid meet">

<g transform="translate(0.000000,787.000000) scale(0.100000,-0.100000)"
fill="#000000" stroke="none">
<path d="M0 3935 l0 -3935 7000 0 7000 0 0 3935 0 3935 -7000 0 -7000 0 0
-3935z m4830 3840 c0 -8 -4 -15 -9 -15 -13 0 -22 16 -14 24 11 11 23 6 23 -9z
m-216 -63 c-22 -5 -31 7 -14 18 9 6 17 5 22 -3 4 -7 1 -13 -8 -15z m8371 10
c0 -18 -20 -15 -23 4 -3 10 1 15 10 12 7 -3 13 -10 13 -16z m-6855 -17 c0 -8
-4 -15 -9 -15 -13 0 -22 16 -14 24 11 11 23 6 23 -9z m7085 -146 c0 -7 -8 -15
-17 -17 -18 -3 -25 18 -11 32 10 10 28 1 28 -15z m-6017 -21 c-6 -18 -28 -21
-28 -4 0 9 7 16 16 16 9 0 14 -5 12 -12z m-2908 -133 c0 -8 -7 -15 -15 -15 -8
0 -15 7 -15 15 0 8 7 15 15 15 8 0 15 -7 15 -15z m2878 -142 c2 -8 -5 -13 -17
-13 -12 0 -21 6 -21 16 0 18 31 15 38 -3z m-3488 -53 c0 -11 -4 -20 -9 -20
-11 0 -22 26 -14 34 12 12 23 5 23 -14z m9688 -38 c2 -7 -3 -12 -12 -12 -9 0
-16 7 -16 16 0 17 22 14 28 -4z m90 -10 c2 -7 -3 -12 -12 -12 -9 0 -16 7 -16
16 0 17 22 14 28 -4z m-5808 -77 c0 -8 -4 -15 -9 -15 -13 0 -22 16 -14 24 11
11 23 6 23 -9z m-3740 -29 c0 -18 -16 -29 -30 -21 -13 8 -1 35 16 35 8 0 14
-6 14 -14z m1985 -47 c10 -15 -1 -23 -20 -15 -9 3 -13 10 -10 16 8 13 22 13
30 -1z m445 -10 c0 -5 -4 -9 -10 -9 -5 0 -10 7 -10 16 0 8 5 12 10 9 6 -3 10
-10 10 -16z m542 -61 c-6 -6 -15 -9 -18 -5 -4 3 -4 14 0 23 5 13 9 15 18 6 9
-9 9 -15 0 -24z m1203 4 c0 -18 -20 -15 -23 4 -3 10 1 15 10 12 7 -3 13 -10
13 -16z m-1165 -83 c0 -5 -7 -9 -15 -9 -15 0 -20 12 -9 23 8 8 24 -1 24 -14z
m5430 -10 c0 -5 -7 -9 -15 -9 -15 0 -20 12 -9 23 8 8 24 -1 24 -14z m-4122
-70 c-2 -6 -8 -10 -13 -10 -5 0 -11 4 -13 10 -2 6 4 11 13 11 9 0 15 -5 13
-11z m-6526 -54 c0 -5 -5 -11 -11 -13 -6 -2 -11 4 -11 13 0 9 5 15 11 13 6 -2
11 -8 11 -13z m11368 -16 c0 -5 -7 -9 -15 -9 -15 0 -20 12 -9 23 8 8 24 -1 24
-14z m-4628 -24 c0 -5 -5 -11 -11 -13 -6 -2 -11 4 -11 13 0 9 5 15 11 13 6 -2
11 -8 11 -13z m-4382 -20 c0 -8 -7 -15 -15 -15 -16 0 -20 12 -8 23 11 12 23 8
23 -8z m90 -10 c0 -8 -4 -15 -9 -15 -13 0 -22 16 -14 24 11 11 23 6 23 -9z
m-2658 -40 c0 -5 -5 -11 -11 -13 -6 -2 -11 4 -11 13 0 9 5 15 11 13 6 -2 11
-8 11 -13z m12268 0 c0 -8 -7 -15 -15 -15 -8 0 -15 7 -15 15 0 8 7 15 15 15 8
0 15 -7 15 -15z m-12480 -11 c0 -17 -22 -14 -28 4 -2 7 3 12 12 12 9 0 16 -7
16 -16z m8903 -149 c1 -5 -6 -11 -15 -13 -11 -2 -18 3 -18 13 0 17 30 18 33 0z
m-9293 -91 c0 -17 -22 -14 -28 4 -2 7 3 12 12 12 9 0 16 -7 16 -16z m11002 -5
c67 -17 89 -18 130 -10 74 16 98 14 140 -16 53 -36 102 -106 128 -183 77 -227
-86 -478 -324 -497 -64 -6 -67 -5 -108 29 -24 20 -54 54 -68 77 -27 44 -77 67
-154 73 -23 2 -41 9 -44 17 -4 11 5 13 49 8 30 -4 66 -10 82 -13 26 -6 27 -5
18 17 -5 14 -12 47 -15 74 -4 27 -9 51 -10 53 -6 5 -99 -20 -128 -34 -34 -17
-38 -17 -38 0 0 16 67 42 133 52 41 5 47 9 47 29 0 13 5 36 10 51 6 15 9 29 7
31 -3 2 -29 -5 -58 -17 -63 -23 -59 -23 -59 -10 0 14 78 49 107 50 13 0 28 12
42 35 l20 35 -47 0 c-26 0 -77 -9 -115 -19 -71 -21 -89 -13 -35 15 20 10 67
19 122 22 88 5 91 6 148 50 32 25 58 46 58 48 0 7 -115 25 -162 26 -48 0 -51
1 -33 14 26 19 63 18 157 -7z m-762 -4 c0 -8 -7 -15 -15 -15 -8 0 -15 7 -15
15 0 8 7 15 15 15 8 0 15 -7 15 -15z m-4550 -16 c0 -5 -7 -9 -15 -9 -15 0 -20
12 -9 23 8 8 24 -1 24 -14z m-3540 1 c0 -5 -7 -10 -15 -10 -8 0 -15 5 -15 10
0 6 7 10 15 10 8 0 15 -4 15 -10z m9818 -22 c-6 -18 -28 -21 -28 -4 0 9 7 16
16 16 9 0 14 -5 12 -12z m-12598 -13 c0 -8 -7 -15 -15 -15 -8 0 -15 7 -15 15
0 8 7 15 15 15 8 0 15 -7 15 -15z m11530 5 c0 -5 -4 -10 -10 -10 -5 0 -10 5
-10 10 0 6 5 10 10 10 6 0 10 -4 10 -10z m-70 -4 c0 -3 -4 -8 -10 -11 -5 -3
-10 -1 -10 4 0 6 5 11 10 11 6 0 10 -2 10 -4z m-7960 -101 c0 -8 -4 -15 -9
-15 -13 0 -22 16 -14 24 11 11 23 6 23 -9z m6710 -90 c0 -8 -7 -15 -15 -15
-16 0 -20 12 -8 23 11 12 23 8 23 -8z m-10025 -16 c0 -7 -8 -15 -17 -17 -18
-3 -25 18 -11 32 10 10 28 1 28 -15z m4013 3 c2 -7 -3 -12 -12 -12 -9 0 -16 7
-16 16 0 17 22 14 28 -4z m-2988 -7 c0 -8 -4 -15 -9 -15 -13 0 -22 16 -14 24
11 11 23 6 23 -9z m10140 -66 c0 -5 -4 -9 -10 -9 -5 0 -10 7 -10 16 0 8 5 12
10 9 6 -3 10 -10 10 -16z m100 -113 c0 -11 -19 -15 -25 -6 -3 5 1 10 9 10 9 0
16 -2 16 -4z m-3685 -40 c74 -19 126 -49 171 -98 37 -40 106 -167 119 -220 6
-22 4 -23 -35 -20 -45 5 -90 -4 -90 -17 0 -5 26 -7 58 -5 31 3 63 1 71 -4 24
-17 40 -149 40 -327 0 -93 -5 -195 -10 -225 -9 -54 -14 -90 -17 -130 -2 -15
-10 -20 -34 -21 -32 -2 -32 -2 -5 -6 28 -4 29 -5 22 -56 -26 -195 -190 -649
-353 -974 -115 -230 -101 -222 -255 -137 -15 8 -43 18 -62 21 -28 5 -35 2 -35
-11 0 -22 28 -32 51 -18 27 17 30 15 19 -14 -6 -14 -10 -29 -10 -34 0 -9 225
-199 245 -206 6 -3 60 7 120 21 60 14 112 22 116 18 3 -5 17 -39 29 -76 17
-53 19 -72 10 -80 -8 -9 -14 -8 -21 6 -6 9 -16 17 -24 17 -7 0 -48 -44 -91
-97 -42 -54 -83 -105 -91 -113 -11 -12 -19 -8 -60 32 l-48 47 -80 -97 c-44
-53 -124 -142 -177 -198 l-98 -101 21 -27 21 -27 -28 -30 -28 -29 21 -21 21
-21 -39 -35 c-22 -20 -45 -33 -53 -30 -17 7 -71 84 -78 113 -4 18 21 48 129
155 150 150 341 369 321 369 -7 0 -80 -9 -163 -19 -446 -58 -971 -60 -1370 -5
-60 8 -132 17 -160 20 -78 9 -271 58 -395 101 -345 120 -583 289 -678 482 -34
69 -37 82 -37 161 0 70 5 95 26 139 l25 55 33 -60 c18 -32 44 -73 57 -90 13
-18 28 -53 34 -78 12 -56 44 -108 96 -158 l39 -36 165 24 c91 13 184 27 208
31 23 3 42 2 42 -3 0 -8 -46 -17 -307 -55 -46 -7 -83 -15 -83 -19 0 -12 161
-112 244 -150 91 -42 261 -102 337 -119 25 -6 52 -13 60 -16 11 -4 18 7 27 42
7 27 25 85 39 131 l26 82 43 0 c23 0 45 -4 48 -9 3 -5 -1 -42 -11 -82 l-16
-73 25 -20 c20 -17 23 -26 17 -46 -17 -60 -13 -67 49 -75 111 -14 287 -32 290
-29 2 1 -22 40 -52 86 -31 45 -56 88 -56 95 0 6 14 23 31 37 24 21 41 26 84
26 51 0 54 -2 76 -37 13 -21 52 -80 88 -132 l66 -93 285 5 c320 6 615 33 814
74 l39 8 -69 59 c-38 32 -91 79 -119 105 -57 54 -92 73 -75 41 5 -10 14 -22
20 -25 9 -6 6 -142 -4 -152 -8 -8 -23 31 -30 79 -8 55 -26 74 -26 28 0 -18 -9
-43 -20 -57 -11 -14 -20 -34 -20 -44 0 -11 -5 -19 -10 -19 -18 0 -23 31 -12
78 8 37 7 52 -4 74 -9 18 -12 41 -8 67 4 24 2 41 -5 45 -17 11 -13 53 7 68 9
7 17 26 17 42 0 39 28 57 52 33 16 -16 16 -17 -11 -17 -31 0 -32 -23 0 -29 10
-1 33 -14 51 -27 19 -14 45 -24 66 -24 30 0 36 5 52 41 15 33 22 39 39 34 47
-14 51 -10 104 93 29 56 50 102 47 102 -2 0 -27 -45 -55 -100 -28 -55 -54
-100 -58 -100 -5 0 -17 6 -27 14 -18 13 -17 17 24 102 49 101 103 226 98 230
-1 2 -21 -1 -42 -6 -22 -5 -71 -16 -110 -24 -38 -8 -132 -29 -208 -47 -76 -17
-140 -29 -144 -25 -13 12 14 27 68 36 30 5 124 26 209 46 85 19 176 40 201 46
45 10 46 11 78 85 55 127 189 568 177 581 -2 1 -29 -17 -60 -39 -93 -67 -278
-181 -284 -175 -13 14 46 57 284 209 l72 45 11 84 c15 117 20 167 20 211 l1
37 45 0 c40 0 45 2 44 23 -1 16 -2 18 -6 5 -3 -13 -15 -18 -44 -18 l-39 0 0
53 c0 77 -25 224 -49 291 -42 118 -93 164 -191 174 -117 11 -357 -97 -519
-232 l-44 -37 -59 58 c-32 31 -58 60 -58 63 0 10 173 137 263 193 104 66 207
110 302 130 89 19 128 20 190 3z m-6157 -18 c-3 -7 -11 -13 -18 -13 -7 0 -15
6 -17 13 -3 7 4 12 17 12 13 0 20 -5 18 -12z m212 -8 c0 -5 -7 -10 -15 -10 -8
0 -15 5 -15 10 0 6 7 10 15 10 8 0 15 -4 15 -10z m7710 -25 c0 -8 -4 -15 -9
-15 -13 0 -22 16 -14 24 11 11 23 6 23 -9z m-6230 -14 c0 -11 -26 -22 -34 -14
-12 12 -5 23 14 23 11 0 20 -4 20 -9z m7382 -56 c0 -5 -5 -11 -11 -13 -6 -2
-11 4 -11 13 0 9 5 15 11 13 6 -2 11 -8 11 -13z m-8652 -16 c0 -5 -7 -9 -15
-9 -15 0 -20 12 -9 23 8 8 24 -1 24 -14z m9420 11 c0 -5 -2 -10 -4 -10 -3 0
-8 5 -11 10 -3 6 -1 10 4 10 6 0 11 -4 11 -10z m-850 -25 c0 -8 -7 -15 -15
-15 -8 0 -15 7 -15 15 0 8 7 15 15 15 8 0 15 -7 15 -15z m927 -7 c-3 -8 -6 -5
-6 6 -1 11 2 17 5 13 3 -3 4 -12 1 -19z m-11279 -29 c-2 -6 -8 -10 -13 -10 -5
0 -11 4 -13 10 -2 6 4 11 13 11 9 0 15 -5 13 -11z m92 -30 c0 -5 -7 -9 -15 -9
-15 0 -20 12 -9 23 8 8 24 -1 24 -14z m5496 6 c114 -16 160 -35 86 -35 -79 0
-134 -36 -173 -113 -18 -35 -23 -38 -52 -33 -32 6 -32 6 -4 -5 15 -6 27 -14
27 -17 0 -4 -7 -43 -15 -87 -27 -152 -14 -343 40 -571 14 -58 25 -111 25 -117
0 -11 -158 -63 -165 -55 -10 11 -41 164 -34 166 5 2 3 9 -4 17 -24 23 -50 230
-50 395 -1 189 2 200 51 201 l37 2 -33 6 c-36 7 -37 8 -28 51 4 24 11 30 33
31 l28 2 -27 4 -27 4 24 55 c13 30 34 68 45 84 26 36 52 38 216 15z m641 -59
c-20 -52 -20 -52 60 -112 105 -80 99 -78 132 -53 16 12 34 18 41 14 7 -4 0
-15 -22 -31 -18 -14 -47 -41 -64 -61 -35 -40 -56 -30 -23 11 12 15 20 28 18
30 -70 48 -179 140 -179 150 0 27 22 76 32 70 5 -3 7 -11 5 -18z m620 -203
c-16 -16 -20 -14 -77 42 -57 56 -59 60 -43 77 16 18 19 16 77 -41 57 -58 60
-62 43 -78z m5873 116 c0 -5 -7 -9 -15 -9 -15 0 -20 12 -9 23 8 8 24 -1 24
-14z m-8070 -44 c0 -8 -4 -15 -10 -15 -5 0 -10 7 -10 15 0 8 5 15 10 15 6 0
10 -7 10 -15z m2114 -44 c55 -56 57 -60 38 -70 -11 -6 -23 -11 -25 -11 -2 0
-30 26 -61 57 -52 52 -56 58 -40 70 10 7 20 13 24 13 3 0 32 -27 64 -59z
m-3414 24 c0 -8 -7 -15 -15 -15 -8 0 -15 7 -15 15 0 8 7 15 15 15 8 0 15 -7
15 -15z m3363 -63 l57 -58 -43 -42 -43 -42 -59 60 -59 60 39 40 c21 22 42 40
45 40 3 0 31 -26 63 -58z m5795 20 c2 -7 -3 -12 -12 -12 -9 0 -16 7 -16 16 0
17 22 14 28 -4z m-215 -7 c1 -5 -6 -11 -15 -13 -11 -2 -18 3 -18 13 0 17 30
18 33 0z m-3673 -11 c0 -17 -22 -14 -28 4 -2 7 3 12 12 12 9 0 16 -7 16 -16z
m1660 -79 c0 -8 -7 -15 -15 -15 -8 0 -15 7 -15 15 0 8 7 15 15 15 8 0 15 -7
15 -15z m-10668 -10 c0 -5 -5 -11 -11 -13 -6 -2 -11 4 -11 13 0 9 5 15 11 13
6 -2 11 -8 11 -13z m4006 -78 c2 -10 -3 -17 -12 -17 -18 0 -29 16 -21 31 9 14
29 6 33 -14z m-138 -12 c0 -8 -7 -15 -15 -15 -8 0 -15 7 -15 15 0 8 7 15 15
15 8 0 15 -7 15 -15z m3039 -39 l53 -54 -93 -118 c-51 -66 -139 -189 -196
-275 l-104 -157 46 -96 c25 -53 49 -96 54 -96 5 0 21 4 35 10 17 6 26 6 26 0
0 -11 -42 -30 -66 -30 -7 0 -34 40 -59 90 -25 50 -47 90 -49 90 -3 0 -19 -27
-38 -60 l-33 -60 -22 44 -22 44 84 145 c47 80 85 150 85 155 0 6 -12 20 -27
32 l-26 20 56 83 c81 119 216 287 230 287 7 0 37 -24 66 -54z m-3731 -4 c2 -7
-3 -12 -12 -12 -9 0 -16 7 -16 16 0 17 22 14 28 -4z m3961 -21 c-13 -9 -43
-33 -65 -53 -44 -41 -54 -45 -54 -25 0 29 103 109 128 99 13 -4 11 -8 -9 -21z
m5151 14 c0 -8 -7 -15 -15 -15 -8 0 -15 7 -15 15 0 8 7 15 15 15 8 0 15 -7 15
-15z m-6052 -36 c-2 -6 -8 -10 -13 -10 -5 0 -11 4 -13 10 -2 6 4 11 13 11 9 0
15 -5 13 -11z m1472 -4 c0 -8 -7 -15 -15 -15 -16 0 -20 12 -8 23 11 12 23 8
23 -8z m2770 -15 c0 -11 -4 -20 -9 -20 -14 0 -23 18 -16 30 10 17 25 11 25
-10z m-4020 -5 c0 -8 -7 -15 -15 -15 -8 0 -15 7 -15 15 0 8 7 15 15 15 8 0 15
-7 15 -15z m5200 0 c0 -8 -7 -15 -15 -15 -8 0 -15 7 -15 15 0 8 7 15 15 15 8
0 15 -7 15 -15z m-3014 -16 c10 -17 -13 -36 -27 -22 -12 12 -4 33 11 33 5 0
12 -5 16 -11z m-7986 -24 c0 -8 -7 -15 -15 -15 -16 0 -20 12 -8 23 11 12 23 8
23 -8z m6488 -2 c-4 -22 -22 -20 -26 1 -2 10 3 16 13 16 10 0 15 -7 13 -17z
m1747 -14 c10 -15 -1 -23 -20 -15 -9 3 -13 10 -10 16 8 13 22 13 30 -1z
m-3575 -84 c0 -8 -7 -15 -15 -15 -16 0 -20 12 -8 23 11 12 23 8 23 -8z m1198
3 c-6 -18 -28 -21 -28 -4 0 9 7 16 16 16 9 0 14 -5 12 -12z m-2244 -18 c56
-14 83 -17 102 -10 14 6 50 10 81 10 54 0 56 -1 113 -59 125 -128 145 -322 48
-473 -59 -94 -169 -161 -284 -174 l-62 -6 -47 43 c-26 24 -58 60 -71 80 -18
29 -33 39 -81 52 -33 10 -71 17 -86 17 -15 0 -27 5 -27 11 0 12 94 8 136 -6
21 -7 21 -6 8 46 -8 29 -14 64 -14 77 0 22 -2 23 -42 17 -24 -4 -60 -14 -81
-22 -38 -16 -64 -10 -37 8 16 9 96 34 143 44 20 4 27 11 27 30 0 13 4 35 10
49 8 22 7 26 -8 26 -9 0 -35 -9 -56 -21 -21 -11 -41 -18 -43 -15 -13 12 23 37
73 52 37 11 60 24 74 45 l21 29 -23 1 c-58 2 -107 -4 -156 -20 -62 -21 -66 -6
-6 23 27 13 64 19 122 20 80 2 83 3 120 38 20 20 48 39 62 44 24 7 23 8 -15
20 -22 7 -71 15 -108 19 -44 5 -64 11 -55 16 22 14 80 10 162 -11z m7571 -51
c0 -7 -8 -15 -17 -17 -18 -3 -25 18 -11 32 10 10 28 1 28 -15z m-7685 1 c0 -5
-4 -10 -10 -10 -5 0 -10 5 -10 10 0 6 5 10 10 10 6 0 10 -4 10 -10z m4850 -35
c0 -8 -7 -15 -15 -15 -8 0 -15 7 -15 15 0 8 7 15 15 15 8 0 15 -7 15 -15z
m-2430 -40 c16 -17 20 -28 13 -37 -6 -7 -45 -74 -88 -148 l-78 -134 22 -38
c11 -20 21 -44 21 -53 0 -9 -42 -100 -93 -203 -51 -103 -103 -211 -116 -241
-22 -53 -22 -55 -5 -93 16 -35 20 -38 48 -33 17 2 64 9 104 15 39 5 104 15
143 21 l71 11 -6 37 c-7 47 11 154 36 208 11 23 40 64 65 90 45 48 45 48 34
91 -6 23 -11 47 -11 53 0 20 17 -1 23 -28 12 -51 20 -57 58 -37 47 24 126 44
176 44 35 0 50 -7 81 -34 21 -19 47 -51 58 -71 l19 -36 61 7 c41 4 64 2 68 -5
4 -6 2 -12 -3 -12 -6 -1 -15 -3 -21 -4 -5 -1 -28 -3 -51 -4 -40 -1 -41 -1 -34
-33 13 -66 15 -68 43 -62 15 3 33 15 41 25 18 25 58 25 66 -1 10 -31 0 -37
-66 -43 -33 -3 -62 -7 -64 -9 -1 -1 -6 -45 -10 -96 l-7 -94 58 3 c82 4 82 -17
-1 -26 -55 -6 -65 -10 -65 -26 0 -14 -7 -19 -26 -19 -18 0 -43 -15 -75 -45
l-48 -45 72 0 c40 0 97 7 127 15 74 20 89 20 69 0 -8 -8 -43 -20 -77 -26 -55
-10 -62 -14 -62 -34 0 -25 -34 -74 -45 -63 -4 3 1 20 9 37 9 16 16 35 16 41 0
16 -138 12 -188 -5 -24 -9 -71 -18 -103 -22 l-60 -6 -58 60 c-35 36 -65 78
-76 107 l-19 48 -50 -7 c-28 -4 -80 -11 -116 -16 -36 -5 -89 -12 -117 -16 -29
-3 -53 -10 -53 -14 0 -10 91 -167 132 -226 l29 -43 -54 0 c-46 0 -57 -4 -82
-30 -16 -17 -33 -29 -37 -28 -5 2 -35 47 -67 101 -32 55 -61 95 -63 90 -3 -4
-20 -55 -38 -113 -37 -120 -44 -131 -66 -108 -14 14 -14 21 1 82 22 86 17 96
-40 96 -25 0 -45 2 -45 5 0 3 9 33 20 66 12 34 19 63 17 66 -3 2 -66 -5 -142
-17 -155 -23 -165 -23 -165 -11 0 4 28 11 63 15 34 4 85 11 112 16 28 5 71 11
96 15 40 5 48 10 62 41 9 19 17 41 17 48 0 7 -27 69 -59 137 -59 123 -59 124
-37 137 20 11 19 12 -6 6 -16 -3 -28 -2 -28 2 0 5 -3 19 -6 32 -4 15 -2 22 8
22 8 0 23 7 34 15 17 13 15 13 -18 0 l-38 -15 -15 37 c-24 58 -76 206 -73 208
2 2 39 14 83 27 l80 24 41 -106 42 -105 -42 -27 c-49 -33 -43 -37 9 -6 31 17
38 19 46 7 19 -30 8 -49 -43 -79 -29 -16 -48 -30 -42 -30 5 0 31 13 57 30 46
29 47 29 58 9 13 -25 3 -34 -85 -79 -33 -16 -53 -30 -45 -30 9 0 41 16 73 35
32 19 63 35 68 35 5 0 14 -14 20 -31 11 -33 16 -25 258 448 31 61 162 263 171
263 3 0 16 -11 29 -25z m765 -1 c18 -22 23 -24 48 -15 16 6 35 11 43 11 26 0
14 -16 -21 -29 l-36 -13 21 -34 c24 -38 21 -48 -22 -70 -41 -21 -49 -9 -13 20
l29 23 -38 52 -38 51 -34 -21 c-45 -28 -46 -3 -1 28 41 28 38 28 62 -3z
m-1875 6 c0 -5 -4 -10 -10 -10 -5 0 -10 5 -10 10 0 6 5 10 10 10 6 0 10 -4 10
-10z m-1490 -200 c0 -5 -4 -10 -10 -10 -5 0 -10 5 -10 10 0 6 5 10 10 10 6 0
10 -4 10 -10z m3685 -68 c-6 -4 -38 -25 -70 -48 -69 -47 -211 -134 -219 -134
-29 0 59 68 222 171 36 23 61 33 67 27 6 -6 6 -11 0 -16z m5710 -42 c3 -5 -1
-10 -9 -10 -9 0 -16 5 -16 10 0 6 4 10 9 10 6 0 13 -4 16 -10z m-9375 -10 c0
-5 -5 -10 -11 -10 -5 0 -7 5 -4 10 3 6 8 10 11 10 2 0 4 -4 4 -10z m71 -3 c-1
-12 -15 -9 -19 4 -3 6 1 10 8 8 6 -3 11 -8 11 -12z m7839 -23 c0 -17 -22 -14
-28 4 -2 7 3 12 12 12 9 0 16 -7 16 -16z m-6990 -9 c0 -8 -7 -15 -15 -15 -16
0 -20 12 -8 23 11 12 23 8 23 -8z m7080 -21 c0 -17 -22 -14 -28 4 -2 7 3 12
12 12 9 0 16 -7 16 -16z m-1150 -69 c0 -8 -7 -15 -15 -15 -8 0 -15 7 -15 15 0
8 7 15 15 15 8 0 15 -7 15 -15z m-3490 -8 c0 -16 -178 -139 -191 -132 -12 8 8
45 25 45 7 0 46 23 87 50 41 28 75 50 76 50 2 0 3 -6 3 -13z m5830 -7 c0 -5
-7 -10 -15 -10 -8 0 -15 5 -15 10 0 6 7 10 15 10 8 0 15 -4 15 -10z m-9110
-20 c0 -5 -4 -10 -10 -10 -5 0 -10 5 -10 10 0 6 5 10 10 10 6 0 10 -4 10 -10z
m4982 -157 c39 -79 48 -131 37 -207 -32 -233 -294 -461 -729 -635 -109 -44
-125 -48 -128 -33 -2 9 -12 45 -23 79 -11 35 -18 67 -15 72 4 5 30 17 59 26
92 30 313 141 405 204 100 68 199 166 229 226 36 70 46 142 41 296 l-4 143 48
-55 c27 -29 63 -82 80 -116z m3922 128 c3 -5 0 -11 -8 -14 -15 -6 -26 1 -26
15 0 11 27 10 34 -1z m-9876 -212 c-2 -6 -8 -10 -13 -10 -5 0 -11 4 -13 10 -2
6 4 11 13 11 9 0 15 -5 13 -11z m2490 -1 c-6 -18 -28 -21 -28 -4 0 9 7 16 16
16 9 0 14 -5 12 -12z m5932 -9 c0 -5 -7 -9 -15 -9 -15 0 -20 12 -9 23 8 8 24
-1 24 -14z m-6110 -55 c0 -8 -7 -14 -15 -14 -15 0 -21 21 -9 33 10 9 24 -2 24
-19z m-2100 -44 c0 -5 -7 -10 -15 -10 -8 0 -15 5 -15 10 0 6 7 10 15 10 8 0
15 -4 15 -10z m218 -8 c2 -7 -3 -12 -12 -12 -9 0 -16 7 -16 16 0 17 22 14 28
-4z m4887 -12 c0 -7 -6 -15 -12 -17 -8 -3 -13 4 -13 17 0 13 5 20 13 18 6 -3
12 -11 12 -18z m-2855 -25 c0 -8 -7 -15 -15 -15 -8 0 -15 7 -15 15 0 8 7 15
15 15 8 0 15 -7 15 -15z m1760 -20 c0 -8 -7 -15 -15 -15 -8 0 -15 7 -15 15 0
8 7 15 15 15 8 0 15 -7 15 -15z m4850 -76 c0 -5 -7 -9 -15 -9 -15 0 -20 12 -9
23 8 8 24 -1 24 -14z m-8252 -107 c2 -7 -3 -12 -12 -12 -9 0 -16 7 -16 16 0
17 22 14 28 -4z m7310 6 c-6 -18 -28 -21 -28 -4 0 9 7 16 16 16 9 0 14 -5 12
-12z m-10013 -7 c7 -12 -12 -24 -25 -16 -11 7 -4 25 10 25 5 0 11 -4 15 -9z
m4450 -11 c-3 -5 -17 -10 -31 -10 -14 0 -22 4 -19 10 3 6 17 10 31 10 14 0 22
-4 19 -10z m2435 -51 c0 -3 -18 -16 -41 -28 -29 -17 -38 -26 -30 -34 8 -8 21
-6 47 7 44 20 58 12 24 -15 -38 -29 -59 -33 -80 -14 -13 12 -27 15 -49 10 -26
-5 -31 -4 -31 12 0 12 22 29 73 54 66 32 86 34 87 8z m-3550 1 c0 -11 -4 -20
-9 -20 -14 0 -23 18 -16 30 10 17 25 11 25 -10z m5550 -55 c0 -8 -7 -15 -15
-15 -8 0 -15 7 -15 15 0 8 7 15 15 15 8 0 15 -7 15 -15z m-6785 -114 c3 -5 -4
-12 -15 -16 -26 -8 -123 -85 -116 -92 3 -3 24 10 48 30 24 19 58 42 76 51 l33
17 40 -39 c21 -22 39 -44 39 -50 0 -5 -19 -12 -41 -15 -23 -3 -81 -26 -130
-51 -95 -50 -109 -54 -109 -31 0 8 16 19 39 25 21 5 60 27 86 47 27 20 65 42
84 49 33 12 34 13 9 14 -16 0 -55 -20 -100 -50 -40 -27 -83 -50 -95 -50 -21 0
-22 1 -6 45 19 58 86 125 124 125 15 0 30 -4 34 -9z m1055 -37 c0 -9 -7 -14
-17 -12 -25 5 -28 28 -4 28 12 0 21 -6 21 -16z m-2120 -59 c0 -8 -7 -15 -15
-15 -8 0 -15 7 -15 15 0 8 7 15 15 15 8 0 15 -7 15 -15z m-1987 -11 c8 -8 -3
-34 -14 -34 -5 0 -9 9 -9 20 0 19 11 26 23 14z m10107 -10 c0 -9 -7 -14 -17
-12 -25 5 -28 28 -4 28 12 0 21 -6 21 -16z m-140 -9 c0 -8 -4 -15 -9 -15 -13
0 -22 16 -14 24 11 11 23 6 23 -9z m-6797 -2 c3 -5 8 -23 12 -41 5 -26 3 -33
-12 -39 -10 -3 -48 -30 -84 -59 -36 -29 -79 -60 -95 -69 -16 -8 -22 -15 -14
-15 17 0 48 21 130 88 28 23 59 42 67 42 25 0 6 -50 -35 -93 -36 -37 -118 -97
-133 -97 -12 0 -67 49 -89 80 l-20 28 90 43 c50 23 90 46 90 50 0 5 -37 -10
-82 -31 -83 -40 -108 -48 -108 -31 0 5 -3 16 -6 25 -4 11 22 29 107 70 103 52
170 69 182 49z m6107 -44 c0 -5 -7 -9 -15 -9 -15 0 -20 12 -9 23 8 8 24 -1 24
-14z m-9087 -154 c1 -5 -6 -11 -15 -13 -11 -2 -18 3 -18 13 0 17 30 18 33 0z
m2931 -46 c-39 -41 -72 -61 -87 -52 -4 3 12 18 36 34 24 16 52 38 62 49 10 11
21 18 23 15 3 -3 -12 -24 -34 -46z m-1209 11 c0 -22 -29 -18 -33 3 -3 14 1 18
15 15 10 -2 18 -10 18 -18z m8695 -6 c25 -4 67 -7 93 -5 59 4 87 -13 124 -76
39 -67 39 -159 -1 -227 -33 -56 -100 -102 -162 -112 -38 -5 -49 -3 -78 19 -18
15 -37 23 -40 19 -4 -3 -4 1 -1 9 9 23 -28 50 -74 56 -23 3 -41 10 -41 14 0
12 17 11 58 -1 29 -8 33 -7 28 6 -3 9 -6 29 -6 46 0 28 -2 30 -32 25 -18 -3
-44 -8 -57 -13 -17 -5 -22 -4 -17 4 4 7 24 15 45 18 49 8 56 13 65 48 7 30 6
31 -49 11 -20 -7 -20 -6 -1 9 11 9 26 16 35 16 16 0 51 28 51 42 0 12 -50 9
-93 -6 -26 -10 -37 -10 -34 -3 5 15 41 25 97 26 34 1 53 9 78 30 l33 28 -32 7
c-17 3 -46 6 -63 6 -24 0 -27 3 -16 10 8 5 22 8 30 6 8 -3 35 -8 60 -12z
m-3060 -106 c0 -27 -381 -438 -405 -438 -7 0 -18 7 -25 15 -11 13 -9 20 14 44
27 28 27 28 9 59 l-18 31 87 88 c47 48 123 132 169 185 l82 97 43 -36 c24 -19
44 -40 44 -45z m470 72 c0 -17 -39 -31 -105 -37 -46 -4 -65 -2 -65 6 0 6 15
11 33 12 17 0 52 6 77 13 59 17 60 18 60 6z m-2365 -25 c32 -9 61 -17 63 -19
8 -9 -12 -106 -22 -106 -6 1 -22 7 -36 15 -36 21 -39 19 -46 -26 -8 -46 -22
-56 -54 -39 -21 11 -22 16 -15 98 8 99 10 105 34 97 9 -3 43 -12 76 -20z
m-5034 -10 c-1 -15 -24 -12 -29 3 -3 9 2 13 12 10 10 -1 17 -7 17 -13z m3419
-10 c0 -8 -7 -15 -15 -15 -8 0 -15 7 -15 15 0 8 7 15 15 15 8 0 15 -7 15 -15z
m-90 -30 c0 -8 -7 -15 -15 -15 -8 0 -15 7 -15 15 0 8 7 15 15 15 8 0 15 -7 15
-15z m2633 -37 c20 -24 63 -72 96 -108 33 -36 61 -74 62 -85 1 -11 2 -43 3
-72 0 -28 5 -55 10 -60 5 -4 6 21 4 60 -3 37 -3 67 -1 67 3 0 43 -36 90 -79
50 -46 91 -77 99 -74 8 3 14 -1 14 -11 0 -21 25 -62 62 -102 l29 -31 -41 -33
-41 -33 -28 27 c-15 14 -31 26 -35 26 -5 0 -57 -35 -115 -78 -137 -102 -129
-98 -141 -66 -20 51 -4 79 72 130 l70 46 -154 156 c-133 135 -287 308 -312
350 -6 9 18 12 107 12 l115 0 35 -42z m1457 28 c0 -16 -90 -46 -139 -46 -55 0
-36 25 19 27 28 0 61 8 73 16 28 20 47 21 47 3z m-2940 -61 c0 -8 -7 -15 -15
-15 -16 0 -20 12 -8 23 11 12 23 8 23 -8z m574 -10 c33 -14 37 -19 34 -48 -3
-29 -6 -32 -37 -30 -45 2 -55 14 -47 57 4 20 8 36 10 36 2 0 20 -7 40 -15z
m2671 -25 c-5 -8 -11 -8 -17 -2 -6 6 -7 16 -3 22 5 8 11 8 17 2 6 -6 7 -16 3
-22z m-295 -10 c0 -17 -48 -30 -111 -30 -42 0 -59 4 -59 13 0 10 13 13 53 9
28 -2 63 1 77 7 33 13 40 13 40 1z m-2425 -45 c45 -15 71 -30 74 -41 2 -14 -2
-16 -28 -11 -112 23 -158 47 -134 70 9 9 9 9 88 -18z m75 -79 c0 -12 -90 1
-134 19 -64 27 -38 32 49 11 47 -11 85 -25 85 -30z m-67 -11 c32 -7 61 -15 64
-18 3 -4 9 -41 13 -84 25 -242 108 -362 250 -363 98 0 248 53 371 132 30 19
57 35 62 36 4 1 17 12 29 24 21 21 22 21 29 2 7 -17 8 -16 8 6 1 32 55 70 100
70 23 0 41 -9 62 -29 45 -46 38 -87 -26 -135 -44 -34 -66 -28 -106 26 -16 23
-29 36 -29 30 0 -6 18 -30 40 -54 l41 -42 -23 -18 c-48 -39 -55 -39 -87 -12
-34 28 -40 58 -15 68 9 4 14 9 11 13 -11 10 -37 -18 -37 -39 0 -11 14 -33 30
-48 l30 -28 -62 -38 c-35 -20 -66 -39 -70 -41 -3 -2 -20 9 -37 23 -22 18 -31
35 -31 55 0 16 -3 29 -7 29 -12 -1 -119 -59 -110 -60 4 0 25 9 47 20 49 25 60
25 60 1 0 -10 12 -31 26 -46 14 -15 22 -31 17 -35 -13 -11 -115 -50 -174 -65
-73 -20 -232 -20 -249 -1 -6 8 -17 13 -25 10 -22 -9 -90 32 -140 83 -83 85
-131 213 -155 413 -16 131 -14 144 13 135 12 -3 48 -12 80 -20z m577 -40 c0
-8 -7 -15 -15 -15 -8 0 -15 7 -15 15 0 8 7 15 15 15 8 0 15 -7 15 -15z m-1790
-70 c0 -8 -4 -15 -10 -15 -5 0 -10 7 -10 15 0 8 5 15 10 15 6 0 10 -7 10 -15z
m3511 -40 c35 -62 59 -80 96 -70 18 4 24 2 21 -7 -3 -7 -20 -14 -40 -16 -34
-3 -35 -5 -48 -60 -19 -89 -47 -154 -80 -189 -36 -38 -36 -40 -8 -70 18 -20
19 -23 5 -23 -21 0 -57 35 -57 56 0 8 12 26 28 39 37 31 69 99 89 187 l15 73
-31 53 c-28 48 -39 82 -26 82 3 0 19 -25 36 -55z m77 -18 c2 -12 -3 -17 -17
-17 -12 0 -21 6 -21 13 0 31 32 34 38 4z m-458 -32 c0 -8 -7 -15 -15 -15 -16
0 -20 12 -8 23 11 12 23 8 23 -8z m1198 -46 c-2 -6 -8 -10 -13 -10 -5 0 -11 4
-13 10 -2 6 4 11 13 11 9 0 15 -5 13 -11z m-1571 -82 l32 -22 -22 -25 -22 -25
25 22 26 23 94 -48 c52 -27 123 -57 158 -67 l62 -19 -32 -35 -33 -36 35 31
c33 30 40 32 133 36 53 2 97 1 97 -3 0 -8 -40 -60 -60 -77 -32 -28 -156 -82
-187 -82 -39 0 -154 40 -248 87 -57 29 -225 132 -245 150 -10 9 125 122 140
117 8 -3 29 -15 47 -27z m5633 17 c0 -17 -22 -14 -28 4 -2 7 3 12 12 12 9 0
16 -7 16 -16z m-5871 -18 l23 -24 -84 -59 c-131 -93 -142 -99 -173 -85 -15 7
-25 17 -23 22 4 14 210 169 224 170 6 0 21 -11 33 -24z m-3171 -18 c-6 -18
-28 -21 -28 -4 0 9 7 16 16 16 9 0 14 -5 12 -12z m-898 -103 c0 -8 -7 -15 -15
-15 -8 0 -15 7 -15 15 0 8 7 15 15 15 8 0 15 -7 15 -15z m1843 0 c1 -5 -6 -11
-15 -13 -11 -2 -18 3 -18 13 0 17 30 18 33 0z m7487 -49 c0 -8 -4 -17 -9 -20
-10 -7 -23 19 -14 28 11 11 23 6 23 -8z m-2990 -11 c0 -8 -4 -15 -10 -15 -5 0
-10 7 -10 15 0 8 5 15 10 15 6 0 10 -7 10 -15z m212 -110 c0 -5 -5 -11 -11
-13 -6 -2 -11 4 -11 13 0 9 5 15 11 13 6 -2 11 -8 11 -13z m218 -5 c0 -5 -7
-10 -15 -10 -8 0 -15 5 -15 10 0 6 7 10 15 10 8 0 15 -4 15 -10z m2788 -37
c-5 -25 -28 -28 -28 -4 0 12 6 21 16 21 9 0 14 -7 12 -17z m-2403 -213 c-5 -8
-11 -8 -17 -2 -6 6 -7 16 -3 22 5 8 11 8 17 2 6 -6 7 -16 3 -22z m635 -64
c-14 -14 -24 0 -16 21 6 15 8 15 16 3 6 -9 5 -19 0 -24z m-7995 -66 c-5 -8
-11 -8 -17 -2 -6 6 -7 16 -3 22 5 8 11 8 17 2 6 -6 7 -16 3 -22z m9915 -45 c0
-8 -7 -15 -15 -15 -16 0 -20 12 -8 23 11 12 23 8 23 -8z m90 -10 c0 -8 -4 -15
-9 -15 -13 0 -22 16 -14 24 11 11 23 6 23 -9z m-11075 -64 c7 -12 -12 -24 -25
-16 -11 7 -4 25 10 25 5 0 11 -4 15 -9z m8885 -6 c0 -8 -7 -15 -15 -15 -8 0
-15 7 -15 15 0 8 7 15 15 15 8 0 15 -7 15 -15z m-7778 -147 c-9 -9 -15 -9 -24
0 -10 10 -10 15 2 22 20 12 38 -6 22 -22z m520 -23 c0 -5 -5 -11 -11 -13 -6
-2 -11 4 -11 13 0 9 5 15 11 13 6 -2 11 -8 11 -13z m463 -16 c10 -15 -1 -23
-20 -15 -9 3 -13 10 -10 16 8 13 22 13 30 -1z m7875 -54 c0 -8 -7 -15 -15 -15
-16 0 -20 12 -8 23 11 12 23 8 23 -8z m-11288 -20 c0 -5 -5 -11 -11 -13 -6 -2
-11 4 -11 13 0 9 5 15 11 13 6 -2 11 -8 11 -13z m8176 -7 c-6 -18 -28 -21 -28
-4 0 9 7 16 16 16 9 0 14 -5 12 -12z m-8088 -24 c0 -9 -5 -14 -12 -12 -18 6
-21 28 -4 28 9 0 16 -7 16 -16z m3501 -17 c-1 -12 -15 -9 -19 4 -3 6 1 10 8 8
6 -3 11 -8 11 -12z m239 -28 c0 -5 -7 -9 -15 -9 -15 0 -20 12 -9 23 8 8 24 -1
24 -14z m4980 5 c0 -9 -5 -14 -12 -12 -18 6 -21 28 -4 28 9 0 16 -7 16 -16z
m3200 -49 c0 -8 -4 -15 -10 -15 -5 0 -10 7 -10 15 0 8 5 15 10 15 6 0 10 -7
10 -15z m-1870 -30 c0 -8 -7 -15 -15 -15 -16 0 -20 12 -8 23 11 12 23 8 23 -8z
m-90 -30 c0 -8 -7 -15 -15 -15 -16 0 -20 12 -8 23 11 12 23 8 23 -8z m-4402
-33 c2 -7 -3 -12 -12 -12 -9 0 -16 7 -16 16 0 17 22 14 28 -4z m7054 -7 c0 -5
-5 -11 -11 -13 -6 -2 -11 4 -11 13 0 9 5 15 11 13 6 -2 11 -8 11 -13z m-10447
-45 c-5 -8 -11 -8 -17 -2 -6 6 -7 16 -3 22 5 8 11 8 17 2 6 -6 7 -16 3 -22z
m6373 -13 c2 -10 -3 -17 -12 -17 -18 0 -29 16 -21 31 9 14 29 6 33 -14z
m-3196 -42 c0 -5 -5 -11 -11 -13 -6 -2 -11 4 -11 13 0 9 5 15 11 13 6 -2 11
-8 11 -13z m-3120 -10 c0 -5 -5 -11 -11 -13 -6 -2 -11 4 -11 13 0 9 5 15 11
13 6 -2 11 -8 11 -13z m2909 0 c-1 -15 -24 -12 -29 3 -3 9 2 13 12 10 10 -1
17 -7 17 -13z m-3501 -30 c0 -8 -4 -15 -10 -15 -5 0 -10 7 -10 15 0 8 5 15 10
15 6 0 10 -7 10 -15z m-2102 -26 c-2 -6 -8 -10 -13 -10 -5 0 -11 4 -13 10 -2
6 4 11 13 11 9 0 15 -5 13 -11z m1672 -103 c-13 -13 -35 7 -25 24 5 8 11 8 21
-1 10 -8 12 -15 4 -23z m10510 -36 c-9 -6 -19 -5 -25 1 -6 6 -5 13 5 19 9 6
19 5 25 -1 6 -6 5 -13 -5 -19z m-6970 -46 c0 -17 -22 -14 -28 4 -2 7 3 12 12
12 9 0 16 -7 16 -16z m2005 -57 c-56 -42 -80 -69 -29 -33 29 20 58 36 66 36 8
0 27 -13 43 -30 17 -18 23 -30 15 -30 -11 0 -10 -3 2 -12 27 -21 32 -55 10
-67 -11 -6 -37 -25 -59 -43 -21 -18 -50 -41 -64 -51 -17 -13 -18 -15 -3 -8 11
5 42 28 69 50 50 41 75 51 75 29 0 -20 -106 -118 -127 -118 -12 0 -35 16 -53
37 l-32 36 66 31 c36 17 66 34 66 38 0 5 -25 -5 -56 -22 -31 -16 -63 -30 -70
-30 -20 0 -17 37 4 50 13 8 13 10 2 8 -28 -5 -25 15 3 23 16 4 44 19 62 33 19
15 44 30 57 36 15 6 18 9 7 9 -9 1 -40 -15 -68 -34 -71 -49 -98 -46 -70 8 22
42 62 77 88 77 l26 -1 -30 -22z m-6563 -2 c0 -5 -5 -11 -11 -13 -6 -2 -11 4
-11 13 0 9 5 15 11 13 6 -2 11 -8 11 -13z m8288 -56 c0 -5 -7 -9 -15 -9 -15 0
-20 12 -9 23 8 8 24 -1 24 -14z m-90 -30 c0 -5 -7 -9 -15 -9 -15 0 -20 12 -9
23 8 8 24 -1 24 -14z m-1546 -155 c-19 -27 -74 -61 -74 -44 0 5 3 10 8 10 4 0
23 14 42 30 43 37 45 37 24 4z m-4799 -64 c-5 -8 -11 -8 -17 -2 -6 6 -7 16 -3
22 5 8 11 8 17 2 6 -6 7 -16 3 -22z"/>
<path d="M8220 5310 c0 -5 5 -10 10 -10 6 0 10 5 10 10 0 6 -4 10 -10 10 -5 0
-10 -4 -10 -10z"/>
<path d="M8280 5272 c0 -5 14 -7 30 -4 17 2 30 6 30 8 0 2 -13 4 -30 4 -16 0
-30 -4 -30 -8z"/>
<path d="M8220 5240 c0 -5 5 -10 10 -10 6 0 10 5 10 10 0 6 -4 10 -10 10 -5 0
-10 -4 -10 -10z"/>
<path d="M8293 4983 c9 -2 23 -2 30 0 6 3 -1 5 -18 5 -16 0 -22 -2 -12 -5z"/>
<path d="M8273 4903 c9 -2 23 -2 30 0 6 3 -1 5 -18 5 -16 0 -22 -2 -12 -5z"/>
<path d="M8228 4813 c7 -3 16 -2 19 1 4 3 -2 6 -13 5 -11 0 -14 -3 -6 -6z"/>
<path d="M8140 4500 c20 -13 33 -13 25 0 -3 6 -14 10 -23 10 -15 0 -15 -2 -2
-10z"/>
<path d="M8131 4413 c-1 -6 -4 -20 -7 -30 -5 -17 -5 -17 6 0 6 10 9 23 6 30
-3 9 -5 9 -5 0z"/>
<path d="M8101 4329 c-6 -18 -9 -34 -7 -36 2 -2 9 10 15 28 6 18 9 34 7 36 -2
2 -9 -10 -15 -28z"/>
<path d="M8076 4265 c-9 -26 -7 -32 5 -12 6 10 9 21 6 23 -2 3 -7 -2 -11 -11z"/>
<path d="M8042 4185 c-17 -37 -14 -45 4 -12 9 16 14 31 11 33 -2 2 -9 -7 -15
-21z"/>
<path d="M7996 4083 c-6 -14 -5 -15 5 -6 7 7 10 15 7 18 -3 3 -9 -2 -12 -12z"/>
<path d="M7966 4023 c-6 -14 -5 -15 5 -6 7 7 10 15 7 18 -3 3 -9 -2 -12 -12z"/>
<path d="M8037 3353 c-13 -12 -7 -23 23 -38 41 -21 44 -19 20 15 -22 30 -31
35 -43 23z"/>
<path d="M7896 3261 c-8 -12 39 -41 74 -46 39 -5 39 11 1 20 -16 3 -35 13 -42
21 -13 16 -25 18 -33 5z"/>
<path d="M5883 5493 c9 -2 23 -2 30 0 6 3 -1 5 -18 5 -16 0 -22 -2 -12 -5z"/>
<path d="M5877 5390 c3 -11 7 -20 9 -20 2 0 4 9 4 20 0 11 -4 20 -9 20 -5 0
-7 -9 -4 -20z"/>
<path d="M5873 5285 c0 -38 2 -53 4 -32 2 20 2 52 0 70 -2 17 -4 1 -4 -38z"/>
<path d="M5862 5128 c-2 -41 7 -45 58 -27 20 7 18 8 -12 3 -35 -4 -37 -3 -41
28 -4 33 -4 33 -5 -4z"/>
<path d="M5910 4966 c0 -2 9 -6 20 -9 11 -3 20 -1 20 4 0 5 -9 9 -20 9 -11 0
-20 -2 -20 -4z"/>
<path d="M5883 4939 c-13 -5 -23 -10 -23 -11 0 -7 80 -1 87 6 4 5 2 6 -5 2 -7
-4 -18 -3 -25 2 -7 6 -21 6 -34 1z"/>
<path d="M5861 4884 c0 -11 3 -14 6 -6 3 7 2 16 -1 19 -3 4 -6 -2 -5 -13z"/>
<path d="M5874 4843 c2 -12 -1 -24 -8 -27 -6 -2 -3 -5 7 -5 19 -1 20 5 6 34
-9 19 -9 19 -5 -2z"/>
<path d="M7255 3840 c-3 -5 -1 -10 4 -10 6 0 11 5 11 10 0 6 -2 10 -4 10 -3 0
-8 -4 -11 -10z"/>
<path d="M3475 3200 c-3 -5 -1 -10 4 -10 6 0 11 5 11 10 0 6 -2 10 -4 10 -3 0
-8 -4 -11 -10z"/>
<path d="M6915 2559 c-12 -18 4 -58 30 -75 26 -17 39 -13 55 17 20 36 -64 93
-85 58z"/>
<path d="M6801 2474 c0 -11 3 -14 6 -6 3 7 2 16 -1 19 -3 4 -6 -2 -5 -13z"/>
<path d="M6455 2285 c-22 -8 -31 -14 -20 -14 11 0 34 6 50 14 38 17 22 17 -30
0z"/>
<path d="M6230 2271 c-5 -11 -9 -32 -9 -48 1 -20 3 -22 6 -8 14 68 11 65 46
58 38 -7 34 1 -5 11 -21 5 -30 2 -38 -13z"/>
<path d="M6333 2263 c15 -2 39 -2 55 0 15 2 2 4 -28 4 -30 0 -43 -2 -27 -4z"/>
<path d="M6280 2220 c0 -5 5 -10 10 -10 6 0 10 5 10 10 0 6 -4 10 -10 10 -5 0
-10 -4 -10 -10z"/>
<path d="M7535 2389 c-4 -6 -5 -12 -2 -15 2 -3 7 2 10 11 7 17 1 20 -8 4z"/>
<path d="M7580 2346 c0 -3 9 -10 20 -16 11 -6 20 -8 20 -6 0 3 -9 10 -20 16
-11 6 -20 8 -20 6z"/>
<path d="M7630 2316 c0 -3 9 -10 20 -16 11 -6 20 -8 20 -6 0 3 -9 10 -20 16
-11 6 -20 8 -20 6z"/>
<path d="M7491 684 c-28 -15 -50 -29 -47 -32 3 -2 12 1 20 7 8 7 36 21 63 31
26 11 41 19 32 20 -8 0 -39 -12 -68 -26z"/>
</g>
</svg>
