<?xml version="1.0" standalone="no"?>
<!DOCTYPE svg PUBLIC "-//W3C//DTD SVG 20010904//EN"
 "http://www.w3.org/TR/2001/REC-SVG-20010904/DTD/svg10.dtd">
<svg version="1.0" xmlns="http://www.w3.org/2000/svg"
 width="1910.000000pt" height="597.000000pt" viewBox="0 0 1910.000000 597.000000"
 preserveAspectRatio="xMidYMid meet">

<g transform="translate(0.000000,597.000000) scale(0.100000,-0.100000)"
fill="#000000" stroke="none">
<path d="M0 2985 l0 -2985 9550 0 9550 0 0 2985 0 2985 -9550 0 -9550 0 0
-2985z m1200 2483 l0 -62 33 32 c18 18 44 32 57 32 24 0 24 0 -8 -33 l-32 -33
30 -47 c16 -26 30 -50 30 -52 0 -3 -11 -5 -23 -5 -17 0 -29 10 -43 35 -22 42
-38 40 -42 -3 -2 -24 -8 -32 -23 -32 -18 0 -19 8 -19 115 0 108 1 115 20 115
18 0 20 -7 20 -62z m750 -53 c0 -108 -1 -115 -20 -115 -19 0 -20 7 -20 115 0
108 1 115 20 115 19 0 20 -7 20 -115z m-1510 21 c0 -100 -19 -136 -74 -136
-56 0 -102 51 -60 67 10 4 22 -1 30 -11 7 -10 21 -16 31 -14 15 3 19 15 21 71
3 62 1 67 -18 67 -13 0 -20 7 -20 20 0 17 7 20 45 20 l45 0 0 -84z m188 68
c47 -33 15 -60 -34 -28 -20 14 -30 15 -50 5 -36 -16 -25 -34 32 -49 58 -17 84
-37 84 -66 0 -27 -9 -40 -37 -55 -52 -27 -152 -1 -153 40 0 14 40 16 51 3 6
-8 29 -14 51 -14 35 0 39 3 36 22 -2 17 -14 25 -51 34 -60 15 -77 29 -77 65 0
36 32 59 85 59 22 0 51 -7 63 -16z m742 -24 c0 -33 -3 -40 -20 -40 -17 0 -20
7 -20 40 0 33 3 40 20 40 17 0 20 -7 20 -40z m468 24 c25 -18 29 -56 7 -74
-14 -11 -13 -14 5 -27 28 -19 27 -67 -2 -87 -15 -11 -46 -16 -95 -16 l-73 0 0
110 0 110 68 0 c45 0 75 -5 90 -16z m-1098 -14 c0 -11 7 -20 15 -20 8 0 15 -7
15 -15 0 -8 -7 -15 -15 -15 -11 0 -15 -12 -15 -51 0 -42 3 -52 20 -56 11 -3
20 -9 20 -14 0 -15 -27 -22 -55 -15 -23 6 -25 10 -25 71 0 37 -4 65 -10 65 -5
0 -10 7 -10 15 0 8 4 15 9 15 5 0 13 9 16 20 3 11 13 20 21 20 8 0 14 -9 14
-20z m17934 -12 c5 -10 7 -10 12 0 8 17 24 15 24 -4 0 -10 6 -14 15 -10 10 4
15 -1 15 -14 0 -12 7 -20 16 -20 14 0 14 -3 3 -16 -10 -12 -10 -17 0 -23 10
-6 9 -10 -3 -14 -9 -4 -16 -13 -16 -21 0 -10 -6 -13 -15 -10 -9 4 -15 0 -15
-10 0 -19 -16 -21 -24 -3 -5 10 -7 10 -12 0 -8 -18 -24 -16 -24 3 0 10 -6 14
-15 10 -9 -3 -15 0 -15 10 0 8 -7 17 -16 21 -12 4 -13 8 -3 14 10 6 10 11 0
23 -11 13 -11 16 3 16 9 0 16 8 16 20 0 13 5 18 15 14 9 -4 15 0 15 10 0 19
16 21 24 4z m-17760 -21 c11 -8 19 -32 23 -70 3 -31 10 -57 14 -57 5 0 9 -7 9
-15 0 -20 -46 -20 -58 1 -8 14 -10 14 -21 0 -16 -19 -62 -21 -79 -4 -15 15
-15 61 0 76 7 7 27 12 44 12 36 0 52 16 35 33 -9 9 -16 8 -31 -1 -27 -16 -50
-15 -50 3 0 32 79 48 114 22z m184 -3 c12 -8 22 -22 22 -30 0 -19 -29 -18 -51
2 -23 21 -45 13 -50 -18 -11 -61 16 -95 50 -64 22 20 51 21 51 2 0 -21 -40
-46 -74 -46 -44 0 -76 35 -76 84 0 73 70 111 128 70z m433 -3 c22 -18 23 -20
6 -27 -10 -3 -23 -2 -30 5 -15 15 -57 14 -57 -2 0 -8 21 -20 48 -28 41 -12 47
-18 50 -44 5 -36 -18 -55 -68 -55 -35 0 -80 23 -80 41 0 12 34 11 47 -2 13
-13 55 -8 60 8 3 7 -16 17 -44 25 -42 12 -48 17 -51 43 -3 19 2 33 14 42 26
19 78 16 105 -6z m604 -6 c78 -77 -32 -192 -119 -124 -21 16 -26 29 -26 64 0
35 5 48 26 64 37 29 89 27 119 -4z m153 13 c9 -9 12 -9 12 0 0 7 10 12 23 12
22 0 22 -2 19 -105 -3 -94 -5 -106 -25 -120 -12 -8 -35 -15 -52 -15 -31 0 -75
24 -75 41 0 13 37 11 59 -3 24 -15 51 4 51 35 0 16 -3 18 -12 9 -19 -19 -63
-14 -84 9 -12 14 -19 36 -19 64 0 28 7 50 19 64 21 23 65 28 84 9z m-1137
-998 c13 -7 19 -7 19 0 0 5 5 10 10 10 15 0 12 -30 -4 -36 -8 -3 -23 -1 -34 5
-15 8 -22 8 -25 -2 -2 -6 -8 -9 -12 -5 -10 9 1 38 15 38 6 0 20 -5 31 -10z
m-800 -19 c34 -28 34 -104 0 -132 -56 -46 -141 -6 -141 66 0 72 85 112 141 66z
m1887 7 c29 -29 -10 -108 -54 -108 -21 0 -17 10 13 42 21 22 24 31 15 40 -10
10 -17 10 -32 0 -21 -13 -50 -16 -50 -5 0 34 81 58 108 31z m-628 -13 c0 -8 7
-15 15 -15 8 0 15 -4 15 -9 0 -5 -7 -11 -15 -15 -9 -3 -15 -18 -15 -40 0 -21
6 -36 15 -40 26 -9 16 -27 -12 -24 -26 3 -28 7 -31 53 -2 27 -8 52 -14 56 -6
4 -3 14 8 28 22 25 34 27 34 6z m220 1 c0 -8 6 -17 13 -20 10 -5 10 -7 0 -12
-15 -7 -17 -80 -3 -89 18 -11 10 -25 -15 -25 -26 0 -30 8 -38 88 -3 23 -1 42
4 42 5 0 9 7 9 15 0 8 7 15 15 15 8 0 15 -6 15 -14z m-1248 -107 c-3 -69 -7
-89 -18 -89 -9 0 -14 10 -14 28 0 26 -3 28 -29 24 -50 -7 -79 58 -46 105 12
17 25 22 63 22 l47 -1 -3 -89z m68 42 c0 -34 5 -51 15 -55 19 -7 35 23 35 68
0 25 4 36 15 36 12 0 15 -14 15 -63 l0 -64 -50 -1 c-59 -1 -70 12 -70 82 0 39
3 46 20 46 17 0 20 -7 20 -49z m201 39 c11 -6 19 -21 19 -35 0 -21 -5 -24 -41
-27 -37 -3 -39 -4 -26 -22 12 -16 16 -17 35 -5 25 16 40 6 22 -16 -16 -20 -64
-19 -84 1 -21 20 -21 78 0 98 18 18 47 20 75 6z m209 -5 c18 -22 4 -31 -25
-15 -19 10 -28 11 -37 2 -9 -9 -7 -13 8 -17 50 -16 64 -26 64 -43 0 -26 -20
-42 -51 -42 -38 0 -59 10 -59 26 0 17 14 18 40 2 15 -10 22 -10 31 -1 10 10 9
13 -2 17 -61 22 -69 27 -69 44 0 10 5 23 12 30 17 17 73 15 88 -3z m130 -4 c5
-11 10 -36 10 -55 0 -20 5 -36 11 -36 5 0 7 -4 4 -10 -8 -14 -45 -13 -45 1 0
8 -4 8 -14 -1 -26 -21 -61 -8 -64 24 -4 31 10 46 46 46 12 0 22 4 22 9 0 15
-18 23 -25 11 -7 -12 -45 -14 -45 -2 0 34 82 45 100 13z m142 2 c22 -20 23
-70 1 -95 -23 -26 -78 -24 -97 4 -33 47 -7 108 46 108 17 0 40 -7 50 -17z
m208 2 c18 -22 4 -31 -25 -15 -19 10 -28 11 -37 2 -9 -9 -7 -13 8 -17 50 -16
64 -26 64 -43 0 -26 -20 -42 -51 -42 -38 0 -59 10 -59 26 0 17 14 18 40 2 15
-10 22 -10 31 -1 10 10 9 13 -2 17 -61 22 -69 27 -69 44 0 10 5 23 12 30 17
17 73 15 88 -3z m208 3 c7 -7 12 -31 12 -55 0 -24 5 -43 10 -43 6 0 10 -4 10
-10 0 -13 -37 -13 -45 0 -5 8 -11 7 -20 0 -8 -6 -24 -10 -37 -8 -17 2 -24 11
-26 32 -4 31 10 46 46 46 22 0 28 10 15 23 -3 4 -12 2 -19 -4 -7 -6 -21 -9
-30 -7 -17 3 -17 4 0 21 20 20 66 23 84 5z m216 -4 c9 -8 16 -24 16 -35 0 -16
-7 -19 -40 -19 -41 0 -49 -7 -29 -27 8 -8 18 -8 35 -1 31 14 45 1 20 -18 -26
-19 -70 -18 -87 2 -7 9 -13 31 -13 49 0 18 6 40 13 49 17 20 65 21 85 0z m136
1 c18 -22 4 -31 -25 -15 -19 10 -28 11 -37 2 -9 -9 -7 -13 8 -17 50 -16 64
-26 64 -43 0 -26 -20 -42 -51 -42 -38 0 -59 10 -59 26 0 17 14 18 40 2 15 -10
22 -10 31 -1 10 10 9 13 -2 17 -61 22 -69 27 -69 44 0 10 5 23 12 30 17 17 73
15 88 -3z m110 -100 c0 -8 -9 -15 -20 -15 -11 0 -20 7 -20 15 0 8 9 15 20 15
11 0 20 -7 20 -15z m-1962 -268 c24 -4 24 -4 -5 -6 l-33 -1 2 48 1 47 4 -42
c4 -36 7 -42 31 -46z m822 38 c0 -41 -2 -45 -24 -45 -13 0 -27 7 -30 16 -10
26 3 54 25 54 10 0 19 5 19 10 0 6 2 10 5 10 3 0 5 -20 5 -45z m110 0 c0 -25
-4 -45 -10 -45 -5 0 -10 20 -10 45 0 25 5 45 10 45 6 0 10 -20 10 -45z m1560
1 c0 -41 -2 -43 -27 -42 -24 1 -28 5 -28 31 0 23 5 31 23 33 12 2 22 8 22 13
0 5 2 9 5 9 3 0 5 -20 5 -44z m607 -23 c-2 -16 -4 -5 -4 22 0 28 2 40 4 28 2
-13 2 -35 0 -50z m241 55 c17 -17 15 -48 -5 -70 -15 -17 -15 -20 -3 -28 8 -6
10 -10 5 -10 -15 0 -75 56 -75 70 0 41 50 66 78 38z m167 -9 c15 -3 20 -12 20
-34 0 -25 -4 -31 -27 -33 -27 -3 -28 -2 -28 45 0 26 4 43 8 37 4 -7 16 -13 27
-15z m235 -23 c0 -41 -2 -43 -27 -42 -24 1 -28 5 -28 31 0 23 5 31 23 33 12 2
22 8 22 13 0 5 2 9 5 9 3 0 5 -20 5 -44z m537 -23 c-2 -16 -4 -5 -4 22 0 28 2
40 4 28 2 -13 2 -35 0 -50z m88 42 c16 0 20 -7 20 -30 0 -26 -4 -30 -27 -31
-27 -1 -28 1 -27 45 0 25 3 39 7 31 4 -8 16 -15 27 -15z m-3151 -30 c1 -19 -2
-35 -5 -35 -8 0 -17 69 -10 75 9 9 14 -5 15 -40z m328 9 c-3 -16 1 -29 9 -35
11 -7 11 -9 -2 -9 -12 0 -18 11 -21 35 -4 37 -1 48 12 40 4 -3 5 -16 2 -31z
m502 -9 c1 -19 -2 -35 -5 -35 -8 0 -17 69 -10 75 9 9 14 -5 15 -40z m110 0 c1
-19 -2 -35 -5 -35 -8 0 -17 69 -10 75 9 9 14 -5 15 -40z m1018 27 c-16 -5 -15
-34 1 -51 10 -11 9 -13 -3 -9 -9 3 -16 19 -18 41 -3 32 -1 36 14 30 11 -4 13
-8 6 -11z m-3087 -27 c0 -23 -5 -31 -21 -33 -24 -3 -38 20 -28 50 4 13 13 18
27 16 17 -2 22 -10 22 -33z m48 27 c-6 -4 -13 -21 -16 -37 -4 -27 -4 -27 -6 8
-1 29 3 37 17 37 11 0 13 -3 5 -8z m75 -14 c3 -14 -3 -18 -23 -18 -16 0 -24
-4 -19 -11 3 -6 15 -8 27 -5 14 3 17 2 10 -5 -27 -27 -64 9 -49 47 8 21 50 14
54 -8z m108 -18 l2 -35 -5 33 c-2 19 -10 32 -19 32 -9 0 -15 -12 -16 -32 l-1
-33 -4 33 c-3 18 -10 32 -18 32 -8 0 -15 -14 -18 -32 -4 -33 -4 -33 -5 4 l-2
38 43 -3 c41 -2 42 -3 43 -37z m74 5 c0 -19 -4 -35 -10 -35 -5 0 -10 16 -10
35 0 19 5 35 10 35 6 0 10 -16 10 -35z m68 2 c3 -22 -1 -30 -17 -34 -12 -3
-21 -12 -21 -19 0 -8 -4 -14 -10 -14 -5 0 -10 23 -10 51 0 49 1 50 28 47 21
-2 28 -9 30 -31z m66 24 c4 -5 -3 -7 -14 -4 -11 3 -20 1 -20 -5 0 -5 9 -12 21
-15 12 -3 19 -12 17 -19 -6 -16 -37 -23 -50 -10 -6 6 0 8 19 5 l28 -4 -22 17
c-13 9 -23 23 -23 30 0 15 36 19 44 5z m36 -22 c0 -39 22 -34 31 7 7 28 7 28
8 -6 1 -30 -3 -36 -21 -37 -12 -1 -26 3 -30 10 -11 17 -10 57 2 57 6 0 10 -14
10 -31z m148 -7 l-1 -37 -4 33 c-5 40 -25 38 -34 -4 l-7 -29 -1 33 c-1 41 -23
39 -32 -4 -6 -28 -7 -28 -8 6 -1 36 -1 36 44 37 l45 2 -2 -37z m187 3 c0 -25
-4 -30 -25 -30 -16 0 -26 6 -28 18 -6 30 6 49 30 45 18 -2 23 -9 23 -33z m100
0 c0 -23 -5 -31 -21 -33 -24 -3 -38 20 -28 50 4 13 13 18 27 16 17 -2 22 -10
22 -33z m47 23 c-5 -7 -12 -24 -15 -38 -3 -18 -5 -15 -6 13 -1 28 3 37 15 37
12 0 14 -3 6 -12z m102 3 c4 -5 -3 -7 -14 -4 -11 3 -20 1 -20 -5 0 -5 9 -12
21 -15 12 -3 19 -12 17 -19 -5 -15 -48 -24 -48 -10 0 6 9 8 20 5 11 -3 20 -1
20 5 0 5 -9 12 -20 15 -26 7 -26 37 -1 37 11 0 22 -4 25 -9z m33 -43 c-2 -13
-4 -5 -4 17 -1 22 1 32 4 23 2 -10 2 -28 0 -40z m145 16 c3 -29 2 -33 -7 -20
-13 17 -35 22 -35 7 0 -5 6 -12 13 -14 7 -3 5 -6 -5 -6 -25 -1 -23 30 2 36 11
3 20 10 20 15 0 6 -9 8 -20 5 -11 -3 -18 -1 -14 4 3 5 13 9 23 9 14 0 20 -9
23 -36z m115 -4 c1 -33 1 -33 -5 -6 -10 43 -32 45 -33 4 l-1 -33 -7 29 c-9 41
-31 46 -31 7 0 -17 -4 -31 -10 -31 -5 0 -10 16 -10 35 l0 35 48 -2 c46 -3 47
-4 49 -38z m71 18 c3 -14 -3 -18 -23 -18 -16 0 -24 -4 -19 -11 3 -6 15 -9 25
-6 11 3 17 1 13 -4 -9 -15 -41 -10 -48 7 -4 9 -4 25 0 36 7 24 47 21 52 -4z
m147 12 c4 -6 -4 -9 -17 -7 -17 1 -23 -3 -23 -18 0 -15 6 -19 23 -18 13 2 21
-1 17 -7 -10 -16 -42 -12 -49 6 -10 25 3 54 24 54 10 0 22 -4 25 -10z m70 -25
c0 -25 -4 -30 -25 -30 -16 0 -26 6 -28 18 -6 30 6 49 30 45 18 -2 23 -9 23
-33z m71 0 c1 -28 1 -28 -3 -2 -6 38 -33 36 -33 -3 0 -16 -4 -30 -10 -30 -5 0
-10 16 -10 36 0 33 2 35 28 32 22 -2 27 -8 28 -33z m68 26 c4 -5 -3 -7 -14 -4
-11 3 -20 1 -20 -5 0 -5 9 -12 21 -15 12 -3 19 -12 17 -19 -5 -15 -48 -24 -48
-10 0 6 9 8 20 5 11 -3 20 -1 20 5 0 5 -9 12 -20 15 -26 7 -26 37 -1 37 11 0
22 -4 25 -9z m74 -13 c3 -14 -3 -18 -23 -18 -16 0 -24 -4 -19 -11 3 -6 15 -9
25 -6 11 3 17 1 13 -4 -9 -15 -41 -10 -48 7 -4 9 -4 25 0 36 7 24 47 21 52 -4z
m66 13 c4 -5 -3 -7 -14 -4 -16 4 -20 0 -20 -22 0 -23 3 -26 21 -22 16 4 19 3
11 -5 -16 -16 -42 -1 -42 25 0 13 3 27 7 30 9 10 31 9 37 -2z m114 -13 c3 -14
-3 -18 -23 -18 -16 0 -24 -4 -19 -11 3 -6 15 -8 27 -5 14 3 17 2 10 -5 -27
-27 -64 9 -49 47 8 21 50 14 54 -8z m72 -9 c0 -39 22 -34 31 7 7 28 7 28 8 -6
1 -30 -3 -36 -21 -37 -12 -1 -26 3 -30 10 -11 17 -10 57 2 57 6 0 10 -14 10
-31z m82 19 c-5 -7 -12 -24 -15 -38 -3 -18 -5 -15 -6 13 -1 28 3 37 15 37 12
0 14 -3 6 -12z m140 -24 c3 -29 2 -33 -7 -20 -13 17 -35 22 -35 7 0 -5 6 -12
13 -14 7 -3 5 -6 -5 -6 -25 -1 -23 30 2 36 11 3 20 10 20 15 0 6 -9 8 -20 5
-11 -3 -18 -1 -14 4 3 5 13 9 23 9 14 0 20 -9 23 -36z m105 -16 c-2 -13 -4 -5
-4 17 -1 22 1 32 4 23 2 -10 2 -28 0 -40z m78 33 c8 -26 -4 -51 -25 -51 -10 0
-21 -8 -23 -17 -3 -10 -5 6 -6 35 -1 49 0 52 23 52 15 0 27 -7 31 -19z m22
-33 c-2 -13 -4 -5 -4 17 -1 22 1 32 4 23 2 -10 2 -28 0 -40z m73 43 c0 -5 -10
-7 -22 -3 -14 3 -19 2 -14 -6 4 -7 14 -12 22 -12 8 0 14 -9 14 -20 0 -21 -33
-29 -44 -11 -4 5 3 7 14 4 11 -3 20 0 20 6 0 6 -6 11 -14 11 -18 0 -29 16 -21
30 8 12 45 13 45 1z m27 -43 c-2 -13 -4 -5 -4 17 -1 22 1 32 4 23 2 -10 2 -28
0 -40z m67 43 c4 -5 -3 -7 -14 -4 -16 4 -20 0 -20 -22 0 -23 3 -26 21 -22 16
4 19 3 11 -5 -13 -13 -40 -4 -48 17 -11 28 35 61 50 36z m36 -26 c0 -19 -4
-35 -10 -35 -5 0 -10 16 -10 35 0 19 5 35 10 35 6 0 10 -16 10 -35z m66 0 c1
-28 1 -28 -3 -2 -6 38 -33 36 -33 -3 0 -16 -4 -30 -10 -30 -5 0 -10 16 -10 36
0 33 2 35 28 32 22 -2 27 -8 28 -33z m74 -12 c0 -45 -20 -67 -42 -45 -8 8 -5
9 11 5 21 -5 22 -3 19 32 -3 43 -28 62 -28 22 0 -14 6 -28 13 -30 7 -4 6 -6
-4 -6 -20 -1 -32 25 -24 50 4 12 15 18 31 17 21 -2 24 -7 24 -45z m110 43 c0
-2 3 -11 6 -20 5 -12 0 -16 -20 -16 -14 0 -26 -5 -26 -11 0 -6 9 -9 20 -6 11
3 20 1 20 -5 0 -5 -10 -8 -22 -6 -39 5 -37 68 2 68 11 0 20 -2 20 -4z m57 -48
c-2 -13 -4 -5 -4 17 -1 22 1 32 4 23 2 -10 2 -28 0 -40z m268 -8 c8 0 15 14
18 33 4 31 4 31 5 -5 2 -34 0 -38 -23 -38 -23 0 -25 4 -23 38 1 36 1 36 5 5 3
-19 10 -33 18 -33z m52 8 c-2 -13 -4 -5 -4 17 -1 22 1 32 4 23 2 -10 2 -28 0
-40z m113 21 c0 -39 22 -34 31 7 7 28 7 28 8 -6 1 -30 -3 -36 -21 -37 -12 -1
-26 3 -30 10 -11 17 -10 57 2 57 6 0 10 -14 10 -31z m104 22 c4 -5 -3 -7 -14
-4 -11 3 -20 1 -20 -5 0 -5 9 -12 21 -15 12 -3 19 -12 17 -19 -5 -15 -48 -24
-48 -10 0 6 9 8 20 5 11 -3 20 -1 20 5 0 5 -9 12 -20 15 -26 7 -26 37 -1 37
11 0 22 -4 25 -9z m148 -27 c3 -29 2 -33 -7 -20 -13 17 -35 22 -35 7 0 -5 6
-12 13 -14 7 -3 5 -6 -5 -6 -25 -1 -23 30 2 36 11 3 20 10 20 15 0 6 -9 8 -20
5 -11 -3 -18 -1 -14 4 3 5 13 9 23 9 14 0 20 -9 23 -36z m115 -4 c1 -33 1 -33
-5 -6 -10 43 -32 45 -33 4 l-1 -33 -7 29 c-9 41 -31 46 -31 7 0 -17 -4 -31
-10 -31 -5 0 -10 16 -10 35 l0 35 48 -2 c46 -3 47 -4 49 -38z m112 -12 c-1
-29 -3 -45 -6 -36 -2 9 -14 18 -26 20 -41 6 -34 68 8 68 24 0 25 -3 24 -52z
m46 -8 c8 0 15 14 18 33 4 31 4 31 5 -5 2 -34 0 -38 -23 -38 -23 0 -25 4 -23
38 1 36 1 36 5 5 3 -19 10 -33 18 -33z m52 8 c-2 -13 -4 -5 -4 17 -1 22 1 32
4 23 2 -10 2 -28 0 -40z m75 16 c3 -29 2 -33 -7 -20 -13 17 -35 22 -35 7 0 -5
6 -12 13 -14 7 -3 5 -6 -5 -6 -25 -1 -23 30 2 36 11 3 20 10 20 15 0 6 -9 8
-20 5 -11 -3 -18 -1 -14 4 3 5 13 9 23 9 14 0 20 -9 23 -36z m95 -16 c-2 -13
-4 -5 -4 17 -1 22 1 32 4 23 2 -10 2 -28 0 -40z m151 30 c3 -14 -3 -18 -23
-18 -16 0 -24 -4 -19 -11 3 -6 15 -9 25 -6 11 3 17 1 13 -4 -9 -15 -41 -10
-48 7 -4 9 -4 25 0 36 7 24 47 21 52 -4z m44 10 c-5 -7 -12 -24 -15 -38 -3
-18 -5 -15 -6 13 -1 28 3 37 15 37 12 0 14 -3 6 -12z m73 -23 c0 -25 -4 -30
-25 -30 -16 0 -26 6 -28 18 -6 30 6 49 30 45 18 -2 23 -9 23 -33z m-3825 -594
l0 -89 -47 0 c-61 0 -73 10 -73 63 0 49 18 70 55 63 22 -5 25 -2 25 23 0 22 5
29 20 29 19 0 20 -7 20 -89z m422 0 l3 -89 -47 -1 c-38 0 -51 5 -63 22 -33 47
-4 112 46 105 26 -4 29 -2 29 24 0 18 5 28 14 28 11 0 15 -20 18 -89z m-1072
64 c0 -11 -12 -15 -50 -15 -43 0 -50 -3 -50 -20 0 -17 7 -20 45 -20 33 0 45
-4 45 -15 0 -11 -12 -15 -45 -15 -38 0 -45 -3 -45 -20 0 -17 7 -20 50 -20 38
0 50 -4 50 -15 0 -12 -14 -15 -70 -15 l-70 0 0 85 0 85 70 0 c56 0 70 -3 70
-15z m210 -10 c0 -8 7 -15 15 -15 8 0 15 -4 15 -10 0 -5 -7 -10 -15 -10 -11 0
-15 -11 -15 -40 0 -27 5 -43 15 -46 25 -10 17 -26 -12 -22 -25 3 -28 7 -31 48
-2 24 -8 50 -13 57 -7 8 -5 18 8 32 21 25 33 27 33 6z m-150 -25 c0 -6 8 -5
20 2 35 22 55 0 58 -66 2 -44 0 -56 -12 -56 -11 0 -16 13 -18 48 -3 39 -6 47
-23 47 -17 0 -20 -8 -23 -47 -2 -32 -8 -48 -17 -48 -9 0 -14 19 -17 65 -3 57
-1 65 15 65 9 0 17 -5 17 -10z m281 0 c11 -6 19 -21 19 -35 0 -21 -5 -24 -41
-27 -37 -3 -39 -4 -26 -22 12 -16 16 -17 35 -5 25 16 40 6 22 -16 -16 -20 -64
-19 -84 1 -21 20 -21 78 0 98 18 18 47 20 75 6z m79 0 c0 -6 8 -5 20 2 35 22
55 0 58 -66 2 -44 0 -56 -12 -56 -11 0 -16 13 -18 48 -3 39 -6 47 -23 47 -17
0 -20 -8 -23 -47 -2 -32 -8 -48 -17 -48 -9 0 -14 19 -17 65 -3 57 -1 65 15 65
9 0 17 -5 17 -10z m354 -12 c26 -37 20 -48 -24 -48 -28 0 -40 -4 -40 -14 0
-17 27 -29 35 -16 9 15 35 12 35 -4 0 -32 -72 -35 -94 -4 -33 46 -7 108 44
108 18 0 34 -8 44 -22z m143 10 c19 -16 17 -118 -2 -118 -11 0 -15 11 -15 38
0 45 -13 67 -34 59 -11 -5 -16 -19 -16 -52 0 -38 -3 -45 -20 -45 -18 0 -20 7
-20 64 l0 64 47 0 c27 0 54 -4 60 -10z m297 -10 c33 -47 4 -108 -51 -108 -55
0 -85 70 -46 112 23 26 78 24 97 -4z m194 10 c7 -7 12 -29 12 -49 0 -21 5 -41
10 -44 24 -15 6 -22 -52 -21 -60 1 -63 2 -66 27 -4 30 12 46 50 51 22 2 25 6
18 18 -7 12 -12 12 -22 2 -16 -16 -38 -15 -38 2 0 26 66 36 88 14z m142 -3
c18 -22 4 -31 -25 -15 -19 10 -28 11 -37 2 -9 -9 -7 -13 8 -17 50 -16 64 -26
64 -43 0 -26 -20 -42 -51 -42 -38 0 -59 10 -59 26 0 17 14 18 40 2 15 -10 22
-10 31 -1 10 10 9 13 -2 17 -61 22 -69 27 -69 44 0 10 5 23 12 30 17 17 73 15
88 -3z m211 -2 c17 -20 16 -77 -1 -98 -9 -11 -24 -15 -42 -13 -25 4 -28 2 -28
-24 0 -21 -5 -28 -20 -28 -19 0 -20 7 -20 89 l0 89 49 0 c33 1 54 -4 62 -15z
m109 1 c0 -8 -6 -14 -14 -14 -15 0 -26 -30 -26 -72 0 -18 -5 -28 -15 -28 -12
0 -15 14 -15 64 l0 64 35 0 c23 0 35 -5 35 -14z m125 2 c13 -9 19 -26 19 -51
0 -43 -22 -65 -65 -65 -37 0 -59 24 -59 65 0 18 7 41 16 49 19 20 64 21 89 2z
m155 -6 c14 -26 12 -73 -3 -95 -11 -14 -22 -17 -45 -12 -30 6 -32 5 -32 -23 0
-20 -5 -30 -15 -30 -12 0 -15 16 -15 88 l0 89 50 1 c39 1 52 -3 60 -18z m130
5 c18 -21 4 -32 -21 -17 -21 13 -43 7 -34 -9 4 -5 13 -9 22 -9 17 0 53 -28 53
-41 0 -34 -86 -53 -110 -24 -18 22 -4 31 24 16 23 -13 46 -9 46 8 0 4 -14 11
-32 16 -40 13 -57 38 -39 59 17 20 75 21 91 1z m70 -95 c0 -11 -7 -20 -15 -20
-8 0 -15 9 -15 20 0 11 7 20 15 20 8 0 15 -9 15 -20z m70 0 c0 -11 -7 -20 -15
-20 -8 0 -15 9 -15 20 0 11 7 20 15 20 8 0 15 -9 15 -20z m70 0 c0 -13 -7 -20
-20 -20 -13 0 -20 7 -20 20 0 13 7 20 20 20 13 0 20 -7 20 -20z m-2592 -273
c24 -4 24 -4 -5 -6 l-33 -1 2 48 1 47 4 -42 c4 -36 7 -42 31 -46z m822 38 c0
-41 -2 -45 -24 -45 -13 0 -27 7 -30 16 -10 26 3 54 25 54 10 0 19 5 19 10 0 6
2 10 5 10 3 0 5 -20 5 -45z m110 0 c0 -25 -4 -45 -10 -45 -5 0 -10 20 -10 45
0 25 5 45 10 45 6 0 10 -20 10 -45z m1560 1 c0 -41 -2 -43 -27 -42 -24 1 -28
5 -28 31 0 23 5 31 23 33 12 2 22 8 22 13 0 5 2 9 5 9 3 0 5 -20 5 -44z m607
-23 c-2 -16 -4 -5 -4 22 0 28 2 40 4 28 2 -13 2 -35 0 -50z m241 55 c17 -17
15 -48 -5 -70 -15 -17 -15 -20 -3 -28 8 -6 10 -10 5 -10 -15 0 -75 56 -75 70
0 41 50 66 78 38z m167 -9 c15 -3 20 -12 20 -34 0 -25 -4 -31 -27 -33 -27 -3
-28 -2 -28 45 0 26 4 43 8 37 4 -7 16 -13 27 -15z m235 -23 c0 -41 -2 -43 -27
-42 -24 1 -28 5 -28 31 0 23 5 31 23 33 12 2 22 8 22 13 0 5 2 9 5 9 3 0 5
-20 5 -44z m537 -23 c-2 -16 -4 -5 -4 22 0 28 2 40 4 28 2 -13 2 -35 0 -50z
m88 42 c16 0 20 -7 20 -30 0 -26 -4 -30 -27 -31 -27 -1 -28 1 -27 45 0 25 3
39 7 31 4 -8 16 -15 27 -15z m-3151 -30 c1 -19 -2 -35 -5 -35 -8 0 -17 69 -10
75 9 9 14 -5 15 -40z m328 9 c-3 -16 1 -29 9 -35 11 -7 11 -9 -2 -9 -12 0 -18
11 -21 35 -4 37 -1 48 12 40 4 -3 5 -16 2 -31z m502 -9 c1 -19 -2 -35 -5 -35
-8 0 -17 69 -10 75 9 9 14 -5 15 -40z m110 0 c1 -19 -2 -35 -5 -35 -8 0 -17
69 -10 75 9 9 14 -5 15 -40z m1018 27 c-16 -5 -15 -34 1 -51 10 -11 9 -13 -3
-9 -9 3 -16 19 -18 41 -3 32 -1 36 14 30 11 -4 13 -8 6 -11z m-3087 -27 c0
-23 -5 -31 -21 -33 -24 -3 -38 20 -28 50 4 13 13 18 27 16 17 -2 22 -10 22
-33z m48 27 c-6 -4 -13 -21 -16 -37 -4 -27 -4 -27 -6 8 -1 29 3 37 17 37 11 0
13 -3 5 -8z m75 -14 c3 -14 -3 -18 -23 -18 -16 0 -24 -4 -19 -11 3 -6 15 -8
27 -5 14 3 17 2 10 -5 -27 -27 -64 9 -49 47 8 21 50 14 54 -8z m108 -18 l2
-35 -5 33 c-2 19 -10 32 -19 32 -9 0 -15 -12 -16 -32 l-1 -33 -4 33 c-3 18
-10 32 -18 32 -8 0 -15 -14 -18 -32 -4 -33 -4 -33 -5 4 l-2 38 43 -3 c41 -2
42 -3 43 -37z m74 5 c0 -19 -4 -35 -10 -35 -5 0 -10 16 -10 35 0 19 5 35 10
35 6 0 10 -16 10 -35z m68 2 c3 -22 -1 -30 -17 -34 -12 -3 -21 -12 -21 -19 0
-8 -4 -14 -10 -14 -5 0 -10 23 -10 51 0 49 1 50 28 47 21 -2 28 -9 30 -31z
m66 24 c4 -5 -3 -7 -14 -4 -11 3 -20 1 -20 -5 0 -5 9 -12 21 -15 12 -3 19 -12
17 -19 -6 -16 -37 -23 -50 -10 -6 6 0 8 19 5 l28 -4 -22 17 c-13 9 -23 23 -23
30 0 15 36 19 44 5z m36 -22 c0 -39 22 -34 31 7 7 28 7 28 8 -6 1 -30 -3 -36
-21 -37 -12 -1 -26 3 -30 10 -11 17 -10 57 2 57 6 0 10 -14 10 -31z m148 -7
l-1 -37 -4 33 c-5 40 -25 38 -34 -4 l-7 -29 -1 33 c-1 41 -23 39 -32 -4 -6
-28 -7 -28 -8 6 -1 36 -1 36 44 37 l45 2 -2 -37z m187 3 c0 -25 -4 -30 -25
-30 -16 0 -26 6 -28 18 -6 30 6 49 30 45 18 -2 23 -9 23 -33z m100 0 c0 -23
-5 -31 -21 -33 -24 -3 -38 20 -28 50 4 13 13 18 27 16 17 -2 22 -10 22 -33z
m47 23 c-5 -7 -12 -24 -15 -38 -3 -18 -5 -15 -6 13 -1 28 3 37 15 37 12 0 14
-3 6 -12z m102 3 c4 -5 -3 -7 -14 -4 -11 3 -20 1 -20 -5 0 -5 9 -12 21 -15 12
-3 19 -12 17 -19 -5 -15 -48 -24 -48 -10 0 6 9 8 20 5 11 -3 20 -1 20 5 0 5
-9 12 -20 15 -26 7 -26 37 -1 37 11 0 22 -4 25 -9z m33 -43 c-2 -13 -4 -5 -4
17 -1 22 1 32 4 23 2 -10 2 -28 0 -40z m145 16 c3 -29 2 -33 -7 -20 -13 17
-35 22 -35 7 0 -5 6 -12 13 -14 7 -3 5 -6 -5 -6 -25 -1 -23 30 2 36 11 3 20
10 20 15 0 6 -9 8 -20 5 -11 -3 -18 -1 -14 4 3 5 13 9 23 9 14 0 20 -9 23 -36z
m115 -4 c1 -33 1 -33 -5 -6 -10 43 -32 45 -33 4 l-1 -33 -7 29 c-9 41 -31 46
-31 7 0 -17 -4 -31 -10 -31 -5 0 -10 16 -10 35 l0 35 48 -2 c46 -3 47 -4 49
-38z m71 18 c3 -14 -3 -18 -23 -18 -16 0 -24 -4 -19 -11 3 -6 15 -9 25 -6 11
3 17 1 13 -4 -9 -15 -41 -10 -48 7 -4 9 -4 25 0 36 7 24 47 21 52 -4z m147 12
c4 -6 -4 -9 -17 -7 -17 1 -23 -3 -23 -18 0 -15 6 -19 23 -18 13 2 21 -1 17 -7
-10 -16 -42 -12 -49 6 -10 25 3 54 24 54 10 0 22 -4 25 -10z m70 -25 c0 -25
-4 -30 -25 -30 -16 0 -26 6 -28 18 -6 30 6 49 30 45 18 -2 23 -9 23 -33z m71
0 c1 -28 1 -28 -3 -2 -6 38 -33 36 -33 -3 0 -16 -4 -30 -10 -30 -5 0 -10 16
-10 36 0 33 2 35 28 32 22 -2 27 -8 28 -33z m68 26 c4 -5 -3 -7 -14 -4 -11 3
-20 1 -20 -5 0 -5 9 -12 21 -15 12 -3 19 -12 17 -19 -5 -15 -48 -24 -48 -10 0
6 9 8 20 5 11 -3 20 -1 20 5 0 5 -9 12 -20 15 -26 7 -26 37 -1 37 11 0 22 -4
25 -9z m74 -13 c3 -14 -3 -18 -23 -18 -16 0 -24 -4 -19 -11 3 -6 15 -9 25 -6
11 3 17 1 13 -4 -9 -15 -41 -10 -48 7 -4 9 -4 25 0 36 7 24 47 21 52 -4z m66
13 c4 -5 -3 -7 -14 -4 -16 4 -20 0 -20 -22 0 -23 3 -26 21 -22 16 4 19 3 11
-5 -16 -16 -42 -1 -42 25 0 13 3 27 7 30 9 10 31 9 37 -2z m114 -13 c3 -14 -3
-18 -23 -18 -16 0 -24 -4 -19 -11 3 -6 15 -8 27 -5 14 3 17 2 10 -5 -27 -27
-64 9 -49 47 8 21 50 14 54 -8z m72 -9 c0 -39 22 -34 31 7 7 28 7 28 8 -6 1
-30 -3 -36 -21 -37 -12 -1 -26 3 -30 10 -11 17 -10 57 2 57 6 0 10 -14 10 -31z
m82 19 c-5 -7 -12 -24 -15 -38 -3 -18 -5 -15 -6 13 -1 28 3 37 15 37 12 0 14
-3 6 -12z m140 -24 c3 -29 2 -33 -7 -20 -13 17 -35 22 -35 7 0 -5 6 -12 13
-14 7 -3 5 -6 -5 -6 -25 -1 -23 30 2 36 11 3 20 10 20 15 0 6 -9 8 -20 5 -11
-3 -18 -1 -14 4 3 5 13 9 23 9 14 0 20 -9 23 -36z m105 -16 c-2 -13 -4 -5 -4
17 -1 22 1 32 4 23 2 -10 2 -28 0 -40z m78 33 c8 -26 -4 -51 -25 -51 -10 0
-21 -8 -23 -17 -3 -10 -5 6 -6 35 -1 49 0 52 23 52 15 0 27 -7 31 -19z m22
-33 c-2 -13 -4 -5 -4 17 -1 22 1 32 4 23 2 -10 2 -28 0 -40z m73 43 c0 -5 -10
-7 -22 -3 -14 3 -19 2 -14 -6 4 -7 14 -12 22 -12 8 0 14 -9 14 -20 0 -21 -33
-29 -44 -11 -4 5 3 7 14 4 11 -3 20 0 20 6 0 6 -6 11 -14 11 -18 0 -29 16 -21
30 8 12 45 13 45 1z m27 -43 c-2 -13 -4 -5 -4 17 -1 22 1 32 4 23 2 -10 2 -28
0 -40z m67 43 c4 -5 -3 -7 -14 -4 -16 4 -20 0 -20 -22 0 -23 3 -26 21 -22 16
4 19 3 11 -5 -13 -13 -40 -4 -48 17 -11 28 35 61 50 36z m36 -26 c0 -19 -4
-35 -10 -35 -5 0 -10 16 -10 35 0 19 5 35 10 35 6 0 10 -16 10 -35z m66 0 c1
-28 1 -28 -3 -2 -6 38 -33 36 -33 -3 0 -16 -4 -30 -10 -30 -5 0 -10 16 -10 36
0 33 2 35 28 32 22 -2 27 -8 28 -33z m74 -12 c0 -45 -20 -67 -42 -45 -8 8 -5
9 11 5 21 -5 22 -3 19 32 -3 43 -28 62 -28 22 0 -14 6 -28 13 -30 7 -4 6 -6
-4 -6 -20 -1 -32 25 -24 50 4 12 15 18 31 17 21 -2 24 -7 24 -45z m110 43 c0
-2 3 -11 6 -20 5 -12 0 -16 -20 -16 -14 0 -26 -5 -26 -11 0 -6 9 -9 20 -6 11
3 20 1 20 -5 0 -5 -10 -8 -22 -6 -39 5 -37 68 2 68 11 0 20 -2 20 -4z m57 -48
c-2 -13 -4 -5 -4 17 -1 22 1 32 4 23 2 -10 2 -28 0 -40z m268 -8 c8 0 15 14
18 33 4 31 4 31 5 -5 2 -34 0 -38 -23 -38 -23 0 -25 4 -23 38 1 36 1 36 5 5 3
-19 10 -33 18 -33z m52 8 c-2 -13 -4 -5 -4 17 -1 22 1 32 4 23 2 -10 2 -28 0
-40z m113 21 c0 -39 22 -34 31 7 7 28 7 28 8 -6 1 -30 -3 -36 -21 -37 -12 -1
-26 3 -30 10 -11 17 -10 57 2 57 6 0 10 -14 10 -31z m104 22 c4 -5 -3 -7 -14
-4 -11 3 -20 1 -20 -5 0 -5 9 -12 21 -15 12 -3 19 -12 17 -19 -5 -15 -48 -24
-48 -10 0 6 9 8 20 5 11 -3 20 -1 20 5 0 5 -9 12 -20 15 -26 7 -26 37 -1 37
11 0 22 -4 25 -9z m148 -27 c3 -29 2 -33 -7 -20 -13 17 -35 22 -35 7 0 -5 6
-12 13 -14 7 -3 5 -6 -5 -6 -25 -1 -23 30 2 36 11 3 20 10 20 15 0 6 -9 8 -20
5 -11 -3 -18 -1 -14 4 3 5 13 9 23 9 14 0 20 -9 23 -36z m115 -4 c1 -33 1 -33
-5 -6 -10 43 -32 45 -33 4 l-1 -33 -7 29 c-9 41 -31 46 -31 7 0 -17 -4 -31
-10 -31 -5 0 -10 16 -10 35 l0 35 48 -2 c46 -3 47 -4 49 -38z m112 -12 c-1
-29 -3 -45 -6 -36 -2 9 -14 18 -26 20 -41 6 -34 68 8 68 24 0 25 -3 24 -52z
m46 -8 c8 0 15 14 18 33 4 31 4 31 5 -5 2 -34 0 -38 -23 -38 -23 0 -25 4 -23
38 1 36 1 36 5 5 3 -19 10 -33 18 -33z m52 8 c-2 -13 -4 -5 -4 17 -1 22 1 32
4 23 2 -10 2 -28 0 -40z m75 16 c3 -29 2 -33 -7 -20 -13 17 -35 22 -35 7 0 -5
6 -12 13 -14 7 -3 5 -6 -5 -6 -25 -1 -23 30 2 36 11 3 20 10 20 15 0 6 -9 8
-20 5 -11 -3 -18 -1 -14 4 3 5 13 9 23 9 14 0 20 -9 23 -36z m95 -16 c-2 -13
-4 -5 -4 17 -1 22 1 32 4 23 2 -10 2 -28 0 -40z m151 30 c3 -14 -3 -18 -23
-18 -16 0 -24 -4 -19 -11 3 -6 15 -9 25 -6 11 3 17 1 13 -4 -9 -15 -41 -10
-48 7 -4 9 -4 25 0 36 7 24 47 21 52 -4z m44 10 c-5 -7 -12 -24 -15 -38 -3
-18 -5 -15 -6 13 -1 28 3 37 15 37 12 0 14 -3 6 -12z m73 -23 c0 -25 -4 -30
-25 -30 -16 0 -26 6 -28 18 -6 30 6 49 30 45 18 -2 23 -9 23 -33z m-4484 -525
c23 -13 26 -62 4 -80 -14 -11 -13 -17 4 -46 20 -33 20 -34 1 -34 -10 0 -28 14
-40 30 -12 17 -30 30 -41 30 -14 0 -19 -7 -19 -30 0 -23 -4 -30 -20 -30 -18 0
-20 7 -20 85 l0 85 56 0 c30 0 64 -5 75 -10z m720 0 c10 -6 19 -17 19 -25 0
-17 -26 -20 -35 -5 -9 14 -48 13 -63 -2 -7 -7 -12 -26 -12 -43 0 -17 5 -36 12
-43 17 -17 55 -15 66 4 7 12 14 14 27 7 17 -10 16 -12 -4 -32 -30 -30 -85 -28
-116 4 -52 51 -18 145 51 145 20 0 44 -5 55 -10z m944 -55 c38 -103 39 -105
17 -105 -11 0 -22 9 -25 20 -4 15 -14 20 -37 20 -23 0 -33 -5 -37 -20 -3 -11
-14 -20 -24 -20 -23 0 -23 -5 0 61 37 106 40 111 62 107 16 -2 27 -19 44 -63z
m177 48 c39 -35 9 -93 -49 -93 -30 0 -33 -3 -33 -30 0 -23 -4 -30 -20 -30 -18
0 -20 7 -20 85 l0 85 52 0 c34 0 58 -6 70 -17z m78 -68 c0 -78 -2 -85 -20 -85
-18 0 -20 7 -20 85 0 78 2 85 20 85 18 0 20 -7 20 -85z m-1430 61 c0 -8 6 -17
13 -20 10 -5 10 -7 0 -12 -15 -7 -17 -80 -3 -89 18 -11 10 -25 -15 -25 -26 0
-30 8 -38 88 -3 23 -1 42 4 42 5 0 9 7 9 15 0 8 7 15 15 15 8 0 15 -6 15 -14z
m610 -1 c0 -8 7 -15 15 -15 8 0 15 -4 15 -10 0 -5 -7 -10 -15 -10 -11 0 -15
-11 -15 -40 0 -27 5 -43 15 -46 25 -10 17 -26 -12 -22 -25 3 -28 7 -31 48 -2
24 -8 50 -13 57 -7 8 -5 18 8 32 21 25 33 27 33 6z m350 1 c0 -8 6 -17 13 -20
10 -5 10 -7 0 -12 -15 -7 -17 -80 -3 -89 18 -11 10 -25 -15 -25 -26 0 -30 8
-38 88 -3 23 -1 42 4 42 5 0 9 7 9 15 0 8 7 15 15 15 8 0 15 -6 15 -14z
m-1306 -38 c26 -37 20 -48 -24 -48 -28 0 -40 -4 -40 -14 0 -17 27 -29 35 -16
9 15 35 12 35 -4 0 -32 -72 -35 -94 -4 -33 46 -7 108 44 108 18 0 34 -8 44
-22z m130 6 c9 -8 16 -30 16 -49 0 -18 3 -40 6 -49 4 -12 0 -16 -15 -16 -12 0
-21 5 -21 12 0 9 -3 9 -12 0 -19 -19 -56 -14 -68 8 -16 30 4 60 40 60 17 0 30
4 30 9 0 15 -18 23 -25 11 -7 -12 -45 -14 -45 -2 0 31 67 43 94 16z m142 -5
l19 -21 -42 7 -43 7 0 -36 c0 -28 4 -36 18 -36 10 0 23 5 29 11 20 20 36 -1
17 -22 -37 -41 -104 -12 -104 44 0 61 66 90 106 46z m456 4 c22 -20 23 -70 1
-95 -23 -26 -78 -24 -97 4 -33 47 -7 108 46 108 17 0 40 -7 50 -17z m78 7 c0
-6 8 -5 20 2 35 22 55 0 58 -66 2 -44 0 -56 -12 -56 -11 0 -16 13 -18 48 -3
39 -6 47 -23 47 -17 0 -20 -8 -23 -47 -2 -32 -8 -48 -17 -48 -9 0 -14 19 -17
65 -3 57 -1 65 15 65 9 0 17 -5 17 -10z m281 0 c11 -6 19 -21 19 -35 0 -21 -5
-24 -41 -27 -37 -3 -39 -4 -26 -22 12 -16 16 -17 35 -5 25 16 40 6 22 -16 -16
-20 -64 -19 -84 1 -9 8 -16 31 -16 49 0 55 42 81 91 55z m83 -11 l14 -21 11
21 c7 12 21 21 32 21 20 0 20 0 -1 -30 l-22 -30 22 -35 c19 -31 20 -35 5 -35
-9 0 -25 10 -35 22 l-17 22 -12 -22 c-6 -12 -21 -22 -32 -22 -20 0 -20 0 2 31
19 27 20 33 8 57 -7 15 -15 30 -17 35 -9 17 28 5 42 -14z m-1406 -362 c24 -4
24 -4 -5 -6 l-33 -1 2 48 1 47 4 -42 c4 -36 7 -42 31 -46z m822 38 c0 -41 -2
-45 -24 -45 -13 0 -27 7 -30 16 -10 26 3 54 25 54 10 0 19 5 19 10 0 6 2 10 5
10 3 0 5 -20 5 -45z m110 0 c0 -25 -4 -45 -10 -45 -5 0 -10 20 -10 45 0 25 5
45 10 45 6 0 10 -20 10 -45z m1560 1 c0 -41 -2 -43 -27 -42 -24 1 -28 5 -28
31 0 23 5 31 23 33 12 2 22 8 22 13 0 5 2 9 5 9 3 0 5 -20 5 -44z m607 -23
c-2 -16 -4 -5 -4 22 0 28 2 40 4 28 2 -13 2 -35 0 -50z m241 55 c17 -17 15
-48 -5 -70 -15 -17 -15 -20 -3 -28 8 -6 10 -10 5 -10 -15 0 -75 56 -75 70 0
41 50 66 78 38z m167 -9 c15 -3 20 -12 20 -34 0 -25 -4 -31 -27 -33 -27 -3
-28 -2 -28 45 0 26 4 43 8 37 4 -7 16 -13 27 -15z m235 -23 c0 -41 -2 -43 -27
-42 -24 1 -28 5 -28 31 0 23 5 31 23 33 12 2 22 8 22 13 0 5 2 9 5 9 3 0 5
-20 5 -44z m537 -23 c-2 -16 -4 -5 -4 22 0 28 2 40 4 28 2 -13 2 -35 0 -50z
m88 42 c16 0 20 -7 20 -30 0 -26 -4 -30 -27 -31 -27 -1 -28 1 -27 45 0 25 3
39 7 31 4 -8 16 -15 27 -15z m-3151 -30 c1 -19 -2 -35 -5 -35 -8 0 -17 69 -10
75 9 9 14 -5 15 -40z m328 9 c-3 -16 1 -29 9 -35 11 -7 11 -9 -2 -9 -12 0 -18
11 -21 35 -4 37 -1 48 12 40 4 -3 5 -16 2 -31z m502 -9 c1 -19 -2 -35 -5 -35
-8 0 -17 69 -10 75 9 9 14 -5 15 -40z m110 0 c1 -19 -2 -35 -5 -35 -8 0 -17
69 -10 75 9 9 14 -5 15 -40z m1018 27 c-16 -5 -15 -34 1 -51 10 -11 9 -13 -3
-9 -9 3 -16 19 -18 41 -3 32 -1 36 14 30 11 -4 13 -8 6 -11z m-3087 -27 c0
-23 -5 -31 -21 -33 -24 -3 -38 20 -28 50 4 13 13 18 27 16 17 -2 22 -10 22
-33z m48 27 c-6 -4 -13 -21 -16 -37 -4 -27 -4 -27 -6 8 -1 29 3 37 17 37 11 0
13 -3 5 -8z m75 -14 c3 -14 -3 -18 -23 -18 -16 0 -24 -4 -19 -11 3 -6 15 -8
27 -5 14 3 17 2 10 -5 -27 -27 -64 9 -49 47 8 21 50 14 54 -8z m108 -18 l2
-35 -5 33 c-2 19 -10 32 -19 32 -9 0 -15 -12 -16 -32 l-1 -33 -4 33 c-3 18
-10 32 -18 32 -8 0 -15 -14 -18 -32 -4 -33 -4 -33 -5 4 l-2 38 43 -3 c41 -2
42 -3 43 -37z m74 5 c0 -19 -4 -35 -10 -35 -5 0 -10 16 -10 35 0 19 5 35 10
35 6 0 10 -16 10 -35z m68 2 c3 -22 -1 -30 -17 -34 -12 -3 -21 -12 -21 -19 0
-8 -4 -14 -10 -14 -5 0 -10 23 -10 51 0 49 1 50 28 47 21 -2 28 -9 30 -31z
m66 24 c4 -5 -3 -7 -14 -4 -11 3 -20 1 -20 -5 0 -5 9 -12 21 -15 12 -3 19 -12
17 -19 -6 -16 -37 -23 -50 -10 -6 6 0 8 19 5 l28 -4 -22 17 c-13 9 -23 23 -23
30 0 15 36 19 44 5z m36 -22 c0 -39 22 -34 31 7 7 28 7 28 8 -6 1 -30 -3 -36
-21 -37 -12 -1 -26 3 -30 10 -11 17 -10 57 2 57 6 0 10 -14 10 -31z m148 -7
l-1 -37 -4 33 c-5 40 -25 38 -34 -4 l-7 -29 -1 33 c-1 41 -23 39 -32 -4 -6
-28 -7 -28 -8 6 -1 36 -1 36 44 37 l45 2 -2 -37z m187 3 c0 -25 -4 -30 -25
-30 -16 0 -26 6 -28 18 -6 30 6 49 30 45 18 -2 23 -9 23 -33z m100 0 c0 -23
-5 -31 -21 -33 -24 -3 -38 20 -28 50 4 13 13 18 27 16 17 -2 22 -10 22 -33z
m47 23 c-5 -7 -12 -24 -15 -38 -3 -18 -5 -15 -6 13 -1 28 3 37 15 37 12 0 14
-3 6 -12z m102 3 c4 -5 -3 -7 -14 -4 -11 3 -20 1 -20 -5 0 -5 9 -12 21 -15 12
-3 19 -12 17 -19 -5 -15 -48 -24 -48 -10 0 6 9 8 20 5 11 -3 20 -1 20 5 0 5
-9 12 -20 15 -26 7 -26 37 -1 37 11 0 22 -4 25 -9z m33 -43 c-2 -13 -4 -5 -4
17 -1 22 1 32 4 23 2 -10 2 -28 0 -40z m145 16 c3 -29 2 -33 -7 -20 -13 17
-35 22 -35 7 0 -5 6 -12 13 -14 7 -3 5 -6 -5 -6 -25 -1 -23 30 2 36 11 3 20
10 20 15 0 6 -9 8 -20 5 -11 -3 -18 -1 -14 4 3 5 13 9 23 9 14 0 20 -9 23 -36z
m115 -4 c1 -33 1 -33 -5 -6 -10 43 -32 45 -33 4 l-1 -33 -7 29 c-9 41 -31 46
-31 7 0 -17 -4 -31 -10 -31 -5 0 -10 16 -10 35 l0 35 48 -2 c46 -3 47 -4 49
-38z m71 18 c3 -14 -3 -18 -23 -18 -16 0 -24 -4 -19 -11 3 -6 15 -9 25 -6 11
3 17 1 13 -4 -9 -15 -41 -10 -48 7 -4 9 -4 25 0 36 7 24 47 21 52 -4z m147 12
c4 -6 -4 -9 -17 -7 -17 1 -23 -3 -23 -18 0 -15 6 -19 23 -18 13 2 21 -1 17 -7
-10 -16 -42 -12 -49 6 -10 25 3 54 24 54 10 0 22 -4 25 -10z m70 -25 c0 -25
-4 -30 -25 -30 -16 0 -26 6 -28 18 -6 30 6 49 30 45 18 -2 23 -9 23 -33z m71
0 c1 -28 1 -28 -3 -2 -6 38 -33 36 -33 -3 0 -16 -4 -30 -10 -30 -5 0 -10 16
-10 36 0 33 2 35 28 32 22 -2 27 -8 28 -33z m68 26 c4 -5 -3 -7 -14 -4 -11 3
-20 1 -20 -5 0 -5 9 -12 21 -15 12 -3 19 -12 17 -19 -5 -15 -48 -24 -48 -10 0
6 9 8 20 5 11 -3 20 -1 20 5 0 5 -9 12 -20 15 -26 7 -26 37 -1 37 11 0 22 -4
25 -9z m74 -13 c3 -14 -3 -18 -23 -18 -16 0 -24 -4 -19 -11 3 -6 15 -9 25 -6
11 3 17 1 13 -4 -9 -15 -41 -10 -48 7 -4 9 -4 25 0 36 7 24 47 21 52 -4z m66
13 c4 -5 -3 -7 -14 -4 -16 4 -20 0 -20 -22 0 -23 3 -26 21 -22 16 4 19 3 11
-5 -16 -16 -42 -1 -42 25 0 13 3 27 7 30 9 10 31 9 37 -2z m114 -13 c3 -14 -3
-18 -23 -18 -16 0 -24 -4 -19 -11 3 -6 15 -8 27 -5 14 3 17 2 10 -5 -27 -27
-64 9 -49 47 8 21 50 14 54 -8z m72 -9 c0 -39 22 -34 31 7 7 28 7 28 8 -6 1
-30 -3 -36 -21 -37 -12 -1 -26 3 -30 10 -11 17 -10 57 2 57 6 0 10 -14 10 -31z
m82 19 c-5 -7 -12 -24 -15 -38 -3 -18 -5 -15 -6 13 -1 28 3 37 15 37 12 0 14
-3 6 -12z m140 -24 c3 -29 2 -33 -7 -20 -13 17 -35 22 -35 7 0 -5 6 -12 13
-14 7 -3 5 -6 -5 -6 -25 -1 -23 30 2 36 11 3 20 10 20 15 0 6 -9 8 -20 5 -11
-3 -18 -1 -14 4 3 5 13 9 23 9 14 0 20 -9 23 -36z m105 -16 c-2 -13 -4 -5 -4
17 -1 22 1 32 4 23 2 -10 2 -28 0 -40z m78 33 c8 -26 -4 -51 -25 -51 -10 0
-21 -8 -23 -17 -3 -10 -5 6 -6 35 -1 49 0 52 23 52 15 0 27 -7 31 -19z m22
-33 c-2 -13 -4 -5 -4 17 -1 22 1 32 4 23 2 -10 2 -28 0 -40z m73 43 c0 -5 -10
-7 -22 -3 -14 3 -19 2 -14 -6 4 -7 14 -12 22 -12 8 0 14 -9 14 -20 0 -21 -33
-29 -44 -11 -4 5 3 7 14 4 11 -3 20 0 20 6 0 6 -6 11 -14 11 -18 0 -29 16 -21
30 8 12 45 13 45 1z m27 -43 c-2 -13 -4 -5 -4 17 -1 22 1 32 4 23 2 -10 2 -28
0 -40z m67 43 c4 -5 -3 -7 -14 -4 -16 4 -20 0 -20 -22 0 -23 3 -26 21 -22 16
4 19 3 11 -5 -13 -13 -40 -4 -48 17 -11 28 35 61 50 36z m36 -26 c0 -19 -4
-35 -10 -35 -5 0 -10 16 -10 35 0 19 5 35 10 35 6 0 10 -16 10 -35z m66 0 c1
-28 1 -28 -3 -2 -6 38 -33 36 -33 -3 0 -16 -4 -30 -10 -30 -5 0 -10 16 -10 36
0 33 2 35 28 32 22 -2 27 -8 28 -33z m74 -12 c0 -45 -20 -67 -42 -45 -8 8 -5
9 11 5 21 -5 22 -3 19 32 -3 43 -28 62 -28 22 0 -14 6 -28 13 -30 7 -4 6 -6
-4 -6 -20 -1 -32 25 -24 50 4 12 15 18 31 17 21 -2 24 -7 24 -45z m110 43 c0
-2 3 -11 6 -20 5 -12 0 -16 -20 -16 -14 0 -26 -5 -26 -11 0 -6 9 -9 20 -6 11
3 20 1 20 -5 0 -5 -10 -8 -22 -6 -39 5 -37 68 2 68 11 0 20 -2 20 -4z m57 -48
c-2 -13 -4 -5 -4 17 -1 22 1 32 4 23 2 -10 2 -28 0 -40z m268 -8 c8 0 15 14
18 33 4 31 4 31 5 -5 2 -34 0 -38 -23 -38 -23 0 -25 4 -23 38 1 36 1 36 5 5 3
-19 10 -33 18 -33z m52 8 c-2 -13 -4 -5 -4 17 -1 22 1 32 4 23 2 -10 2 -28 0
-40z m113 21 c0 -39 22 -34 31 7 7 28 7 28 8 -6 1 -30 -3 -36 -21 -37 -12 -1
-26 3 -30 10 -11 17 -10 57 2 57 6 0 10 -14 10 -31z m104 22 c4 -5 -3 -7 -14
-4 -11 3 -20 1 -20 -5 0 -5 9 -12 21 -15 12 -3 19 -12 17 -19 -5 -15 -48 -24
-48 -10 0 6 9 8 20 5 11 -3 20 -1 20 5 0 5 -9 12 -20 15 -26 7 -26 37 -1 37
11 0 22 -4 25 -9z m148 -27 c3 -29 2 -33 -7 -20 -13 17 -35 22 -35 7 0 -5 6
-12 13 -14 7 -3 5 -6 -5 -6 -25 -1 -23 30 2 36 11 3 20 10 20 15 0 6 -9 8 -20
5 -11 -3 -18 -1 -14 4 3 5 13 9 23 9 14 0 20 -9 23 -36z m115 -4 c1 -33 1 -33
-5 -6 -10 43 -32 45 -33 4 l-1 -33 -7 29 c-9 41 -31 46 -31 7 0 -17 -4 -31
-10 -31 -5 0 -10 16 -10 35 l0 35 48 -2 c46 -3 47 -4 49 -38z m112 -12 c-1
-29 -3 -45 -6 -36 -2 9 -14 18 -26 20 -41 6 -34 68 8 68 24 0 25 -3 24 -52z
m46 -8 c8 0 15 14 18 33 4 31 4 31 5 -5 2 -34 0 -38 -23 -38 -23 0 -25 4 -23
38 1 36 1 36 5 5 3 -19 10 -33 18 -33z m52 8 c-2 -13 -4 -5 -4 17 -1 22 1 32
4 23 2 -10 2 -28 0 -40z m75 16 c3 -29 2 -33 -7 -20 -13 17 -35 22 -35 7 0 -5
6 -12 13 -14 7 -3 5 -6 -5 -6 -25 -1 -23 30 2 36 11 3 20 10 20 15 0 6 -9 8
-20 5 -11 -3 -18 -1 -14 4 3 5 13 9 23 9 14 0 20 -9 23 -36z m95 -16 c-2 -13
-4 -5 -4 17 -1 22 1 32 4 23 2 -10 2 -28 0 -40z m151 30 c3 -14 -3 -18 -23
-18 -16 0 -24 -4 -19 -11 3 -6 15 -9 25 -6 11 3 17 1 13 -4 -9 -15 -41 -10
-48 7 -4 9 -4 25 0 36 7 24 47 21 52 -4z m44 10 c-5 -7 -12 -24 -15 -38 -3
-18 -5 -15 -6 13 -1 28 3 37 15 37 12 0 14 -3 6 -12z m73 -23 c0 -25 -4 -30
-25 -30 -16 0 -26 6 -28 18 -6 30 6 49 30 45 18 -2 23 -9 23 -33z m-4425 -534
c0 -25 3 -28 25 -23 40 7 55 -13 55 -74 0 -41 -4 -54 -15 -54 -11 0 -15 11
-15 38 0 45 -13 67 -34 59 -11 -5 -16 -19 -16 -52 0 -38 -3 -45 -20 -45 -19 0
-20 7 -20 90 0 83 1 90 20 90 15 0 20 -7 20 -29z m490 14 c0 -8 -7 -15 -15
-15 -8 0 -15 7 -15 15 0 8 7 15 15 15 8 0 15 -7 15 -15z m1360 -75 c0 -73 -3
-90 -15 -90 -12 0 -15 17 -15 90 0 73 3 90 15 90 12 0 15 -17 15 -90z m280 2
l0 -89 -50 -1 c-55 -1 -70 13 -70 65 0 46 21 67 58 60 30 -6 32 -5 32 23 0 20
5 30 15 30 12 0 15 -16 15 -88z m-2182 66 c-3 -7 -17 -14 -31 -16 -26 -3 -27
-5 -27 -73 0 -62 -2 -69 -20 -69 -18 0 -20 7 -20 70 0 68 -1 70 -25 70 -16 0
-25 6 -25 15 0 12 15 15 76 15 56 0 75 -3 72 -12z m1612 -3 c18 -21 -3 -46
-22 -27 -17 17 -58 15 -58 -2 0 -8 14 -17 33 -21 60 -13 85 -56 51 -89 -29
-30 -124 -15 -124 19 0 17 26 20 35 5 3 -5 20 -10 36 -10 43 0 35 31 -11 43
-19 5 -41 13 -47 19 -18 14 -16 43 3 62 20 21 88 21 104 1z m802 -7 c21 -21
21 -23 4 -26 -10 -2 -23 1 -29 7 -15 15 -50 14 -65 -1 -16 -16 -16 -70 0 -86
16 -16 48 -15 67 2 12 11 21 12 31 5 13 -8 11 -13 -9 -29 -55 -47 -141 -8
-141 65 0 74 91 114 142 63z m-722 -3 c0 -10 10 -15 33 -15 31 0 35 -3 48 -47
l15 -48 13 48 c10 34 19 47 32 47 24 0 24 0 -14 -95 -28 -70 -35 -80 -59 -83
-20 -2 -28 1 -28 12 0 9 6 16 14 16 26 0 27 17 5 74 -16 40 -27 56 -40 56 -15
0 -19 -8 -19 -40 0 -27 5 -43 15 -46 25 -10 17 -26 -12 -22 -25 3 -28 7 -31
48 -2 24 -8 50 -13 57 -7 8 -5 18 8 32 21 25 33 27 33 6z m1880 0 c0 -8 7 -15
15 -15 8 0 15 -4 15 -10 0 -5 -7 -10 -15 -10 -11 0 -15 -11 -15 -40 0 -27 5
-43 15 -46 25 -10 17 -26 -12 -22 -25 3 -28 7 -31 48 -2 24 -8 50 -13 57 -7 8
-5 18 8 32 21 25 33 27 33 6z m-3316 -37 c26 -37 20 -48 -24 -48 -28 0 -40 -4
-40 -14 0 -17 27 -29 35 -16 9 15 35 12 35 -4 0 -32 -72 -35 -94 -4 -33 46 -7
108 44 108 18 0 34 -8 44 -22z m143 11 c7 -7 13 -6 18 1 10 17 44 11 55 -9 5
-11 10 -40 10 -65 0 -39 -3 -46 -20 -46 -17 0 -20 7 -20 50 0 36 -4 50 -14 50
-17 0 -26 -22 -26 -66 0 -23 -5 -34 -14 -34 -11 0 -16 14 -18 48 -2 34 -7 47
-18 47 -11 0 -16 -13 -18 -47 -3 -40 -6 -48 -23 -48 -17 0 -19 7 -19 64 l0 64
47 0 c27 0 53 -4 60 -9z m143 -54 c0 -51 -3 -65 -15 -65 -12 0 -15 14 -15 65
0 51 3 65 15 65 12 0 15 -14 15 -65z m137 53 c19 -16 17 -118 -2 -118 -11 0
-15 11 -15 38 0 45 -13 67 -34 59 -11 -5 -16 -19 -16 -52 0 -38 -3 -45 -20
-45 -18 0 -20 7 -20 64 l0 64 47 0 c27 0 54 -4 60 -10z m155 -66 c-2 -43 -8
-83 -14 -89 -15 -18 -73 -16 -88 2 -18 21 -4 32 21 17 16 -10 24 -10 35 -1 22
18 17 26 -14 21 -54 -7 -82 55 -47 105 12 17 25 22 63 22 l47 -1 -3 -76z m198
63 c18 -22 5 -30 -25 -17 -23 11 -27 9 -36 -12 -14 -29 4 -68 26 -60 8 4 15
10 15 15 0 5 7 9 15 9 18 0 20 -21 3 -38 -17 -17 -64 -15 -82 4 -9 8 -16 31
-16 49 0 18 7 41 16 49 20 20 68 21 84 1z m144 -7 c33 -47 4 -108 -51 -108
-55 0 -85 70 -46 112 23 26 78 24 97 -4z m143 11 c7 -7 13 -6 18 1 10 17 44
11 55 -9 5 -11 10 -40 10 -65 0 -39 -3 -46 -20 -46 -17 0 -20 7 -20 50 0 36
-4 50 -14 50 -17 0 -26 -22 -26 -66 0 -23 -5 -34 -14 -34 -11 0 -16 14 -18 48
-2 34 -7 47 -18 47 -11 0 -16 -13 -18 -47 -3 -40 -6 -48 -23 -48 -17 0 -19 7
-19 64 l0 64 47 0 c27 0 53 -4 60 -9z m704 1 c11 -6 19 -21 19 -35 0 -21 -5
-24 -41 -27 -37 -3 -39 -4 -26 -22 12 -16 16 -17 35 -5 25 16 40 6 22 -16 -16
-20 -64 -19 -84 1 -9 8 -16 31 -16 49 0 55 42 81 91 55z m534 -4 c13 -9 19
-26 19 -51 0 -43 -22 -65 -65 -65 -37 0 -59 24 -59 65 0 18 7 41 16 49 19 20
64 21 89 2z m75 4 c0 -6 8 -5 20 2 16 10 24 10 40 1 12 -8 21 -9 25 -3 10 16
52 12 59 -6 3 -9 6 -38 6 -65 0 -36 -4 -49 -14 -49 -11 0 -16 14 -18 48 -2 34
-7 47 -18 47 -11 0 -16 -13 -18 -47 -3 -40 -6 -48 -23 -48 -16 0 -19 7 -19 50
0 36 -4 50 -14 50 -17 0 -26 -22 -26 -66 0 -24 -5 -34 -15 -34 -12 0 -15 14
-15 65 0 51 3 65 15 65 8 0 15 -5 15 -10z m291 -7 c17 -20 16 -77 -1 -98 -9
-11 -24 -15 -42 -13 -25 4 -28 2 -28 -24 0 -21 -5 -28 -20 -28 -19 0 -20 7
-20 89 l0 89 49 0 c33 1 54 -4 62 -15z m141 0 c22 -20 23 -70 1 -95 -23 -26
-78 -24 -97 4 -33 47 -7 108 46 108 17 0 40 -7 50 -17z m78 7 c0 -6 8 -5 20 2
35 22 55 0 58 -66 2 -44 0 -56 -12 -56 -11 0 -16 13 -18 48 -3 39 -6 47 -23
47 -17 0 -20 -8 -23 -47 -2 -32 -8 -48 -17 -48 -9 0 -14 19 -17 65 -3 57 -1
65 15 65 9 0 17 -5 17 -10z m201 0 c11 -6 19 -21 19 -35 0 -21 -5 -24 -41 -27
-37 -3 -39 -4 -26 -22 12 -16 16 -17 35 -5 25 16 40 6 22 -16 -16 -20 -64 -19
-84 1 -9 8 -16 31 -16 49 0 55 42 81 91 55z m79 0 c0 -6 8 -5 20 2 35 22 55 0
58 -66 2 -44 0 -56 -12 -56 -11 0 -16 13 -18 48 -3 39 -6 47 -23 47 -17 0 -20
-8 -23 -47 -2 -32 -8 -48 -17 -48 -9 0 -14 19 -17 65 -3 57 -1 65 15 65 9 0
17 -5 17 -10z m290 -5 c18 -22 4 -31 -25 -15 -19 10 -28 11 -37 2 -9 -9 -7
-13 8 -17 50 -16 64 -26 64 -43 0 -26 -20 -42 -51 -42 -38 0 -59 10 -59 26 0
17 14 18 40 2 15 -10 22 -10 31 -1 10 10 9 13 -2 17 -61 22 -69 27 -69 44 0
10 5 23 12 30 17 17 73 15 88 -3z m-3812 -368 c24 -4 24 -4 -5 -6 l-33 -1 2
48 1 47 4 -42 c4 -36 7 -42 31 -46z m822 38 c0 -41 -2 -45 -24 -45 -13 0 -27
7 -30 16 -10 26 3 54 25 54 10 0 19 5 19 10 0 6 2 10 5 10 3 0 5 -20 5 -45z
m110 0 c0 -25 -4 -45 -10 -45 -5 0 -10 20 -10 45 0 25 5 45 10 45 6 0 10 -20
10 -45z m1560 1 c0 -41 -2 -43 -27 -42 -24 1 -28 5 -28 31 0 23 5 31 23 33 12
2 22 8 22 13 0 5 2 9 5 9 3 0 5 -20 5 -44z m607 -23 c-2 -16 -4 -5 -4 22 0 28
2 40 4 28 2 -13 2 -35 0 -50z m241 55 c17 -17 15 -48 -5 -70 -15 -17 -15 -20
-3 -28 8 -6 10 -10 5 -10 -15 0 -75 56 -75 70 0 41 50 66 78 38z m167 -9 c15
-3 20 -12 20 -34 0 -25 -4 -31 -27 -33 -27 -3 -28 -2 -28 45 0 26 4 43 8 37 4
-7 16 -13 27 -15z m235 -23 c0 -41 -2 -43 -27 -42 -24 1 -28 5 -28 31 0 23 5
31 23 33 12 2 22 8 22 13 0 5 2 9 5 9 3 0 5 -20 5 -44z m537 -23 c-2 -16 -4
-5 -4 22 0 28 2 40 4 28 2 -13 2 -35 0 -50z m88 42 c16 0 20 -7 20 -30 0 -26
-4 -30 -27 -31 -27 -1 -28 1 -27 45 0 25 3 39 7 31 4 -8 16 -15 27 -15z
m-3151 -30 c1 -19 -2 -35 -5 -35 -8 0 -17 69 -10 75 9 9 14 -5 15 -40z m328 9
c-3 -16 1 -29 9 -35 11 -7 11 -9 -2 -9 -12 0 -18 11 -21 35 -4 37 -1 48 12 40
4 -3 5 -16 2 -31z m502 -9 c1 -19 -2 -35 -5 -35 -8 0 -17 69 -10 75 9 9 14 -5
15 -40z m110 0 c1 -19 -2 -35 -5 -35 -8 0 -17 69 -10 75 9 9 14 -5 15 -40z
m1018 27 c-16 -5 -15 -34 1 -51 10 -11 9 -13 -3 -9 -9 3 -16 19 -18 41 -3 32
-1 36 14 30 11 -4 13 -8 6 -11z m-3087 -27 c0 -23 -5 -31 -21 -33 -24 -3 -38
20 -28 50 4 13 13 18 27 16 17 -2 22 -10 22 -33z m48 27 c-6 -4 -13 -21 -16
-37 -4 -27 -4 -27 -6 8 -1 29 3 37 17 37 11 0 13 -3 5 -8z m75 -14 c3 -14 -3
-18 -23 -18 -16 0 -24 -4 -19 -11 3 -6 15 -8 27 -5 14 3 17 2 10 -5 -27 -27
-64 9 -49 47 8 21 50 14 54 -8z m108 -18 l2 -35 -5 33 c-2 19 -10 32 -19 32
-9 0 -15 -12 -16 -32 l-1 -33 -4 33 c-3 18 -10 32 -18 32 -8 0 -15 -14 -18
-32 -4 -33 -4 -33 -5 4 l-2 38 43 -3 c41 -2 42 -3 43 -37z m74 5 c0 -19 -4
-35 -10 -35 -5 0 -10 16 -10 35 0 19 5 35 10 35 6 0 10 -16 10 -35z m68 2 c3
-22 -1 -30 -17 -34 -12 -3 -21 -12 -21 -19 0 -8 -4 -14 -10 -14 -5 0 -10 23
-10 51 0 49 1 50 28 47 21 -2 28 -9 30 -31z m66 24 c4 -5 -3 -7 -14 -4 -11 3
-20 1 -20 -5 0 -5 9 -12 21 -15 12 -3 19 -12 17 -19 -6 -16 -37 -23 -50 -10
-6 6 0 8 19 5 l28 -4 -22 17 c-13 9 -23 23 -23 30 0 15 36 19 44 5z m36 -22
c0 -39 22 -34 31 7 7 28 7 28 8 -6 1 -30 -3 -36 -21 -37 -12 -1 -26 3 -30 10
-11 17 -10 57 2 57 6 0 10 -14 10 -31z m148 -7 l-1 -37 -4 33 c-5 40 -25 38
-34 -4 l-7 -29 -1 33 c-1 41 -23 39 -32 -4 -6 -28 -7 -28 -8 6 -1 36 -1 36 44
37 l45 2 -2 -37z m187 3 c0 -25 -4 -30 -25 -30 -16 0 -26 6 -28 18 -6 30 6 49
30 45 18 -2 23 -9 23 -33z m100 0 c0 -23 -5 -31 -21 -33 -24 -3 -38 20 -28 50
4 13 13 18 27 16 17 -2 22 -10 22 -33z m47 23 c-5 -7 -12 -24 -15 -38 -3 -18
-5 -15 -6 13 -1 28 3 37 15 37 12 0 14 -3 6 -12z m102 3 c4 -5 -3 -7 -14 -4
-11 3 -20 1 -20 -5 0 -5 9 -12 21 -15 12 -3 19 -12 17 -19 -5 -15 -48 -24 -48
-10 0 6 9 8 20 5 11 -3 20 -1 20 5 0 5 -9 12 -20 15 -26 7 -26 37 -1 37 11 0
22 -4 25 -9z m33 -43 c-2 -13 -4 -5 -4 17 -1 22 1 32 4 23 2 -10 2 -28 0 -40z
m145 16 c3 -29 2 -33 -7 -20 -13 17 -35 22 -35 7 0 -5 6 -12 13 -14 7 -3 5 -6
-5 -6 -25 -1 -23 30 2 36 11 3 20 10 20 15 0 6 -9 8 -20 5 -11 -3 -18 -1 -14
4 3 5 13 9 23 9 14 0 20 -9 23 -36z m115 -4 c1 -33 1 -33 -5 -6 -10 43 -32 45
-33 4 l-1 -33 -7 29 c-9 41 -31 46 -31 7 0 -17 -4 -31 -10 -31 -5 0 -10 16
-10 35 l0 35 48 -2 c46 -3 47 -4 49 -38z m71 18 c3 -14 -3 -18 -23 -18 -16 0
-24 -4 -19 -11 3 -6 15 -9 25 -6 11 3 17 1 13 -4 -9 -15 -41 -10 -48 7 -4 9
-4 25 0 36 7 24 47 21 52 -4z m147 12 c4 -6 -4 -9 -17 -7 -17 1 -23 -3 -23
-18 0 -15 6 -19 23 -18 13 2 21 -1 17 -7 -10 -16 -42 -12 -49 6 -10 25 3 54
24 54 10 0 22 -4 25 -10z m70 -25 c0 -25 -4 -30 -25 -30 -16 0 -26 6 -28 18
-6 30 6 49 30 45 18 -2 23 -9 23 -33z m71 0 c1 -28 1 -28 -3 -2 -6 38 -33 36
-33 -3 0 -16 -4 -30 -10 -30 -5 0 -10 16 -10 36 0 33 2 35 28 32 22 -2 27 -8
28 -33z m68 26 c4 -5 -3 -7 -14 -4 -11 3 -20 1 -20 -5 0 -5 9 -12 21 -15 12
-3 19 -12 17 -19 -5 -15 -48 -24 -48 -10 0 6 9 8 20 5 11 -3 20 -1 20 5 0 5
-9 12 -20 15 -26 7 -26 37 -1 37 11 0 22 -4 25 -9z m74 -13 c3 -14 -3 -18 -23
-18 -16 0 -24 -4 -19 -11 3 -6 15 -9 25 -6 11 3 17 1 13 -4 -9 -15 -41 -10
-48 7 -4 9 -4 25 0 36 7 24 47 21 52 -4z m66 13 c4 -5 -3 -7 -14 -4 -16 4 -20
0 -20 -22 0 -23 3 -26 21 -22 16 4 19 3 11 -5 -16 -16 -42 -1 -42 25 0 13 3
27 7 30 9 10 31 9 37 -2z m114 -13 c3 -14 -3 -18 -23 -18 -16 0 -24 -4 -19
-11 3 -6 15 -8 27 -5 14 3 17 2 10 -5 -27 -27 -64 9 -49 47 8 21 50 14 54 -8z
m72 -9 c0 -39 22 -34 31 7 7 28 7 28 8 -6 1 -30 -3 -36 -21 -37 -12 -1 -26 3
-30 10 -11 17 -10 57 2 57 6 0 10 -14 10 -31z m82 19 c-5 -7 -12 -24 -15 -38
-3 -18 -5 -15 -6 13 -1 28 3 37 15 37 12 0 14 -3 6 -12z m140 -24 c3 -29 2
-33 -7 -20 -13 17 -35 22 -35 7 0 -5 6 -12 13 -14 7 -3 5 -6 -5 -6 -25 -1 -23
30 2 36 11 3 20 10 20 15 0 6 -9 8 -20 5 -11 -3 -18 -1 -14 4 3 5 13 9 23 9
14 0 20 -9 23 -36z m105 -16 c-2 -13 -4 -5 -4 17 -1 22 1 32 4 23 2 -10 2 -28
0 -40z m78 33 c8 -26 -4 -51 -25 -51 -10 0 -21 -8 -23 -17 -3 -10 -5 6 -6 35
-1 49 0 52 23 52 15 0 27 -7 31 -19z m22 -33 c-2 -13 -4 -5 -4 17 -1 22 1 32
4 23 2 -10 2 -28 0 -40z m73 43 c0 -5 -10 -7 -22 -3 -14 3 -19 2 -14 -6 4 -7
14 -12 22 -12 8 0 14 -9 14 -20 0 -21 -33 -29 -44 -11 -4 5 3 7 14 4 11 -3 20
0 20 6 0 6 -6 11 -14 11 -18 0 -29 16 -21 30 8 12 45 13 45 1z m27 -43 c-2
-13 -4 -5 -4 17 -1 22 1 32 4 23 2 -10 2 -28 0 -40z m67 43 c4 -5 -3 -7 -14
-4 -16 4 -20 0 -20 -22 0 -23 3 -26 21 -22 16 4 19 3 11 -5 -13 -13 -40 -4
-48 17 -11 28 35 61 50 36z m36 -26 c0 -19 -4 -35 -10 -35 -5 0 -10 16 -10 35
0 19 5 35 10 35 6 0 10 -16 10 -35z m66 0 c1 -28 1 -28 -3 -2 -6 38 -33 36
-33 -3 0 -16 -4 -30 -10 -30 -5 0 -10 16 -10 36 0 33 2 35 28 32 22 -2 27 -8
28 -33z m74 -12 c0 -45 -20 -67 -42 -45 -8 8 -5 9 11 5 21 -5 22 -3 19 32 -3
43 -28 62 -28 22 0 -14 6 -28 13 -30 7 -4 6 -6 -4 -6 -20 -1 -32 25 -24 50 4
12 15 18 31 17 21 -2 24 -7 24 -45z m110 43 c0 -2 3 -11 6 -20 5 -12 0 -16
-20 -16 -14 0 -26 -5 -26 -11 0 -6 9 -9 20 -6 11 3 20 1 20 -5 0 -5 -10 -8
-22 -6 -39 5 -37 68 2 68 11 0 20 -2 20 -4z m57 -48 c-2 -13 -4 -5 -4 17 -1
22 1 32 4 23 2 -10 2 -28 0 -40z m268 -8 c8 0 15 14 18 33 4 31 4 31 5 -5 2
-34 0 -38 -23 -38 -23 0 -25 4 -23 38 1 36 1 36 5 5 3 -19 10 -33 18 -33z m52
8 c-2 -13 -4 -5 -4 17 -1 22 1 32 4 23 2 -10 2 -28 0 -40z m113 21 c0 -39 22
-34 31 7 7 28 7 28 8 -6 1 -30 -3 -36 -21 -37 -12 -1 -26 3 -30 10 -11 17 -10
57 2 57 6 0 10 -14 10 -31z m104 22 c4 -5 -3 -7 -14 -4 -11 3 -20 1 -20 -5 0
-5 9 -12 21 -15 12 -3 19 -12 17 -19 -5 -15 -48 -24 -48 -10 0 6 9 8 20 5 11
-3 20 -1 20 5 0 5 -9 12 -20 15 -26 7 -26 37 -1 37 11 0 22 -4 25 -9z m148
-27 c3 -29 2 -33 -7 -20 -13 17 -35 22 -35 7 0 -5 6 -12 13 -14 7 -3 5 -6 -5
-6 -25 -1 -23 30 2 36 11 3 20 10 20 15 0 6 -9 8 -20 5 -11 -3 -18 -1 -14 4 3
5 13 9 23 9 14 0 20 -9 23 -36z m115 -4 c1 -33 1 -33 -5 -6 -10 43 -32 45 -33
4 l-1 -33 -7 29 c-9 41 -31 46 -31 7 0 -17 -4 -31 -10 -31 -5 0 -10 16 -10 35
l0 35 48 -2 c46 -3 47 -4 49 -38z m112 -12 c-1 -29 -3 -45 -6 -36 -2 9 -14 18
-26 20 -41 6 -34 68 8 68 24 0 25 -3 24 -52z m46 -8 c8 0 15 14 18 33 4 31 4
31 5 -5 2 -34 0 -38 -23 -38 -23 0 -25 4 -23 38 1 36 1 36 5 5 3 -19 10 -33
18 -33z m52 8 c-2 -13 -4 -5 -4 17 -1 22 1 32 4 23 2 -10 2 -28 0 -40z m75 16
c3 -29 2 -33 -7 -20 -13 17 -35 22 -35 7 0 -5 6 -12 13 -14 7 -3 5 -6 -5 -6
-25 -1 -23 30 2 36 11 3 20 10 20 15 0 6 -9 8 -20 5 -11 -3 -18 -1 -14 4 3 5
13 9 23 9 14 0 20 -9 23 -36z m95 -16 c-2 -13 -4 -5 -4 17 -1 22 1 32 4 23 2
-10 2 -28 0 -40z m151 30 c3 -14 -3 -18 -23 -18 -16 0 -24 -4 -19 -11 3 -6 15
-9 25 -6 11 3 17 1 13 -4 -9 -15 -41 -10 -48 7 -4 9 -4 25 0 36 7 24 47 21 52
-4z m44 10 c-5 -7 -12 -24 -15 -38 -3 -18 -5 -15 -6 13 -1 28 3 37 15 37 12 0
14 -3 6 -12z m73 -23 c0 -25 -4 -30 -25 -30 -16 0 -26 6 -28 18 -6 30 6 49 30
45 18 -2 23 -9 23 -33z m-4475 -789 c0 -24 -3 -51 -6 -60 -8 -20 -38 -21 -54
-1 -8 9 -9 15 -2 15 6 0 14 -5 17 -10 13 -20 25 2 25 45 0 25 -5 45 -12 48 -7
3 -3 6 10 6 20 1 22 -4 22 -43z m100 29 c14 -17 0 -21 -17 -4 -13 13 -43 5
-43 -11 0 -5 16 -16 35 -24 19 -8 35 -21 35 -28 0 -20 -21 -38 -44 -38 -26 0
-53 16 -43 26 3 4 13 1 22 -6 8 -7 22 -10 30 -6 25 9 17 34 -14 41 -16 3 -32
13 -35 22 -14 36 48 60 74 28z m260 -17 c0 -29 1 -30 18 -15 26 24 39 21 17
-3 -17 -18 -17 -21 -1 -45 20 -31 4 -34 -17 -2 l-16 22 0 -22 c-1 -13 -5 -23
-11 -23 -6 0 -10 27 -10 60 0 33 4 60 10 60 6 0 10 -14 10 -32z m67 0 c-3 -7
-5 -2 -5 12 0 14 2 19 5 13 2 -7 2 -19 0 -25z m220 20 c5 -7 9 -33 9 -58 -1
-45 -1 -45 -38 -48 l-38 -3 0 60 c0 60 0 61 29 61 16 0 33 -6 38 -12z m53 -48
c0 -33 -4 -60 -10 -60 -6 0 -10 27 -10 60 0 33 4 60 10 60 6 0 10 -27 10 -60z
m353 53 c-21 -4 -23 -10 -23 -59 0 -30 -4 -54 -10 -54 -5 0 -10 24 -10 54 0
44 -4 55 -17 59 -10 3 5 5 32 4 28 0 40 -2 28 -4z m167 -54 l0 -60 -32 3 c-31
3 -33 5 -33 43 0 34 3 40 23 43 12 2 22 10 22 18 0 8 5 14 10 14 6 0 10 -27
10 -61z m520 3 c0 -59 0 -59 -31 -60 -22 0 -33 5 -41 22 -14 32 6 70 33 63 14
-4 19 0 19 14 0 10 5 19 10 19 6 0 10 -26 10 -58z m1090 -3 l0 -60 -32 3 c-31
3 -33 5 -33 43 0 34 3 40 23 43 12 2 22 10 22 18 0 8 5 14 10 14 6 0 10 -27
10 -61z m-2683 9 c-8 -12 -8 -24 1 -42 9 -21 9 -26 -2 -26 -9 0 -15 15 -18 45
-4 56 0 68 16 52 10 -8 10 -16 3 -29z m1840 0 c-8 -12 -8 -24 1 -42 9 -21 9
-26 -2 -26 -9 0 -15 15 -18 45 -4 56 0 68 16 52 10 -8 10 -16 3 -29z m16383
30 c0 -5 6 -8 14 -5 10 4 17 -3 21 -22 8 -39 -3 -81 -21 -74 -8 3 -14 1 -14
-4 0 -15 -39 -8 -60 10 -26 22 -25 61 0 84 21 21 60 28 60 11z m-18135 -35 c4
-16 8 -35 9 -44 3 -13 -5 -16 -33 -15 -31 1 -36 4 -36 26 0 18 6 26 23 28 12
2 22 8 22 14 0 6 -10 8 -26 4 -17 -5 -23 -3 -19 4 3 5 17 10 30 10 19 0 26 -7
30 -27z m83 7 c5 -13 3 -13 -12 -1 -15 13 -19 13 -27 0 -11 -18 -11 -30 1 -49
7 -12 12 -12 22 -2 18 18 33 15 18 -3 -21 -25 -54 -15 -58 18 -2 16 -1 35 2
44 7 18 48 13 54 -7z m188 8 c5 -8 2 -9 -10 -5 -33 13 -38 -5 -6 -25 26 -15
30 -21 20 -33 -15 -18 -46 -20 -56 -4 -4 7 0 9 14 5 30 -10 37 12 8 24 -25 9
-34 29 -19 43 10 11 41 8 49 -5z m272 0 c7 -7 12 -21 12 -33 0 -46 -53 -62
-71 -21 -21 45 26 87 59 54z m102 -38 c0 -25 -5 -51 -12 -58 -15 -15 -45 -16
-53 -2 -4 6 3 9 16 7 12 -1 24 3 26 10 3 7 -3 9 -16 6 -15 -4 -24 2 -32 20
-16 36 2 66 41 65 29 -1 30 -3 30 -48z m251 29 c8 -16 8 -28 0 -45 -18 -41
-71 -25 -71 21 0 44 50 61 71 24z m174 -24 c0 -38 -2 -40 -30 -40 -26 0 -30 4
-33 28 -5 44 4 59 35 55 25 -3 28 -7 28 -43z m81 34 c4 -7 0 -9 -14 -5 -31 10
-37 -13 -7 -24 17 -7 25 -16 23 -28 -4 -20 -45 -29 -62 -12 -8 9 -4 10 15 5
31 -8 50 12 22 22 -34 12 -44 24 -32 39 14 17 45 18 55 3z m135 -10 c8 -16 8
-28 0 -45 -18 -41 -71 -25 -71 21 0 44 50 61 71 24z m79 12 c0 -5 -9 -7 -20
-4 -29 8 -25 -16 6 -27 16 -7 24 -16 22 -28 -4 -20 -45 -29 -62 -12 -8 9 -4
10 17 5 35 -9 37 11 2 27 -24 11 -32 28 -18 41 10 10 53 8 53 -2z m167 -58
c-2 -16 -4 -5 -4 22 0 28 2 40 4 28 2 -13 2 -35 0 -50z m55 55 c-7 -7 -12 -27
-12 -45 0 -18 -4 -33 -10 -33 -5 0 -10 20 -10 45 0 40 3 45 22 45 17 0 19 -3
10 -12z m88 -7 c15 -29 13 -31 -21 -31 -20 0 -29 -4 -26 -12 2 -7 14 -12 26
-11 13 2 20 -1 16 -7 -17 -27 -65 -2 -65 35 0 43 50 62 70 26z m40 -26 c0 -25
-4 -45 -10 -45 -5 0 -10 20 -10 45 0 25 5 45 10 45 6 0 10 -20 10 -45z m131
24 c8 -16 8 -28 0 -45 -18 -41 -71 -25 -71 21 0 44 50 61 71 24z m79 12 c0 -5
-9 -7 -20 -4 -29 8 -25 -16 6 -27 16 -7 24 -16 22 -28 -4 -20 -45 -29 -62 -12
-8 9 -4 10 17 5 35 -9 37 11 2 27 -24 11 -32 28 -18 41 10 10 53 8 53 -2z
m101 0 c-8 -5 -17 -26 -21 -47 l-8 -39 -1 45 c-1 41 2 46 21 47 16 2 19 0 9
-6z m87 -18 c3 -20 -1 -23 -27 -23 -24 0 -29 -4 -24 -16 4 -11 13 -14 32 -9
20 5 23 4 15 -5 -7 -6 -22 -10 -35 -8 -18 2 -25 10 -27 31 -5 44 4 59 35 55
20 -2 29 -9 31 -25z m78 15 c5 -8 2 -9 -10 -5 -33 13 -38 -5 -6 -25 26 -15 30
-21 20 -33 -15 -18 -46 -20 -56 -4 -4 7 0 9 14 5 30 -10 37 12 8 24 -25 9 -34
29 -19 43 10 11 41 8 49 -5z m92 -15 c3 -20 -1 -23 -27 -23 -24 0 -29 -4 -24
-16 4 -11 13 -14 32 -9 20 5 23 4 15 -5 -7 -6 -22 -10 -35 -8 -18 2 -25 10
-27 31 -5 44 4 59 35 55 20 -2 29 -9 31 -25z m87 -3 c8 -38 22 -38 30 0 4 17
11 30 16 30 12 0 12 -3 -7 -50 -9 -22 -20 -40 -25 -40 -4 0 -14 18 -20 40 -13
44 -36 53 -43 18 -3 -13 -7 -32 -9 -43 -3 -11 -5 0 -6 25 -1 44 0 46 28 48 25
2 30 -2 36 -28z m130 3 c4 -16 8 -35 9 -44 3 -13 -5 -16 -33 -15 -31 1 -36 4
-36 26 0 18 6 26 23 28 12 2 22 8 22 14 0 6 -10 8 -26 4 -17 -5 -23 -3 -19 4
3 5 17 10 30 10 19 0 26 -7 30 -27z m180 -18 c0 -38 -2 -40 -30 -40 -26 0 -30
4 -33 28 -5 44 4 59 35 55 25 -3 28 -7 28 -43z m81 34 c4 -7 0 -9 -14 -5 -31
10 -37 -13 -7 -24 17 -7 25 -16 23 -28 -4 -20 -45 -29 -62 -12 -8 9 -4 10 15
5 31 -8 50 12 22 22 -34 12 -44 24 -32 39 14 17 45 18 55 3z m-2076 -69 c0 -5
-4 -10 -10 -10 -5 0 -10 5 -10 10 0 6 5 10 10 10 6 0 10 -4 10 -10z"/>
<path d="M1727 5483 c-4 -3 -7 -17 -7 -30 0 -22 3 -24 43 -21 34 2 43 7 45 24
2 15 -4 23 -20 28 -30 8 -53 8 -61 -1z"/>
<path d="M1727 5393 c-13 -12 -7 -54 8 -59 8 -4 31 -3 50 0 28 6 35 11 35 30
0 16 -7 26 -22 30 -30 8 -63 8 -71 -1z"/>
<path d="M18670 5376 c7 -7 13 -7 20 0 6 6 3 10 -10 10 -13 0 -16 -4 -10 -10z"/>
<path d="M837 5367 c-3 -8 -1 -20 4 -28 10 -17 42 -1 47 25 4 20 -43 23 -51 3z"/>
<path d="M2054 5432 c-26 -16 -20 -89 6 -97 29 -9 50 12 50 49 0 46 -26 68
-56 48z"/>
<path d="M2242 5428 c-17 -17 -15 -73 3 -88 34 -28 68 27 46 76 -12 26 -30 31
-49 12z"/>
<path d="M262 4418 c-17 -17 -15 -73 2 -88 42 -34 92 22 68 75 -13 27 -49 34
-70 13z"/>
<path d="M513 4393 c-18 -6 -17 -70 1 -76 18 -7 36 12 36 39 0 25 -19 43 -37
37z"/>
<path d="M800 4385 c-11 -13 -9 -15 15 -15 16 0 25 5 23 12 -7 19 -24 20 -38
3z"/>
<path d="M1125 4340 c-3 -5 -4 -14 0 -20 8 -13 35 -1 35 16 0 16 -26 19 -35 4z"/>
<path d="M1271 4387 c-25 -25 -5 -82 25 -70 8 3 14 19 14 38 0 35 -20 51 -39
32z"/>
<path d="M1684 4339 c-8 -14 11 -33 25 -25 6 4 11 14 11 22 0 16 -26 19 -36 3z"/>
<path d="M1907 4393 c-14 -13 -6 -23 19 -23 22 0 25 2 14 15 -14 16 -23 19
-33 8z"/>
<path d="M1030 4065 c0 -16 6 -25 15 -25 9 0 15 9 15 25 0 16 -6 25 -15 25 -9
0 -15 -9 -15 -25z"/>
<path d="M2693 4074 c-8 -21 13 -42 28 -27 13 13 5 43 -11 43 -6 0 -13 -7 -17
-16z"/>
<path d="M3531 4092 c-13 -25 8 -56 35 -50 29 5 27 62 -3 66 -13 2 -26 -4 -32
-16z"/>
<path d="M3733 4074 c-8 -21 13 -42 28 -27 13 13 5 43 -11 43 -6 0 -13 -7 -17
-16z"/>
<path d="M3943 4074 c-8 -21 13 -42 28 -27 13 13 5 43 -11 43 -6 0 -13 -7 -17
-16z"/>
<path d="M4593 4074 c-8 -21 13 -42 28 -27 13 13 5 43 -11 43 -6 0 -13 -7 -17
-16z"/>
<path d="M294 4075 c-7 -18 3 -35 22 -35 8 0 14 10 14 25 0 27 -27 35 -36 10z"/>
<path d="M415 4080 c-3 -5 3 -10 15 -10 12 0 18 5 15 10 -3 6 -10 10 -15 10
-5 0 -12 -4 -15 -10z"/>
<path d="M670 4065 c0 -16 6 -25 15 -25 9 0 15 9 15 25 0 16 -6 25 -15 25 -9
0 -15 -9 -15 -25z"/>
<path d="M1103 4074 c-8 -21 13 -42 28 -27 13 13 5 43 -11 43 -6 0 -13 -7 -17
-16z"/>
<path d="M1204 4075 c-7 -18 3 -35 22 -35 8 0 14 10 14 25 0 27 -27 35 -36 10z"/>
<path d="M1715 4080 c-3 -5 3 -10 14 -10 12 0 21 5 21 10 0 6 -6 10 -14 10 -8
0 -18 -4 -21 -10z"/>
<path d="M1930 4065 c0 -20 4 -26 18 -23 9 2 17 12 17 23 0 11 -8 21 -17 23
-14 3 -18 -3 -18 -23z"/>
<path d="M2145 4080 c-3 -5 3 -10 14 -10 12 0 21 5 21 10 0 6 -6 10 -14 10 -8
0 -18 -4 -21 -10z"/>
<path d="M2325 4080 c-3 -5 3 -10 15 -10 12 0 18 5 15 10 -3 6 -10 10 -15 10
-5 0 -12 -4 -15 -10z"/>
<path d="M2800 4065 c0 -16 6 -25 15 -25 9 0 15 9 15 25 0 16 -6 25 -15 25 -9
0 -15 -9 -15 -25z"/>
<path d="M3280 4080 c0 -5 9 -10 21 -10 11 0 17 5 14 10 -3 6 -13 10 -21 10
-8 0 -14 -4 -14 -10z"/>
<path d="M4243 4074 c-8 -21 13 -42 28 -27 13 13 5 43 -11 43 -6 0 -13 -7 -17
-16z"/>
<path d="M4665 4080 c-3 -5 3 -10 14 -10 12 0 21 5 21 10 0 6 -6 10 -14 10 -8
0 -18 -4 -21 -10z"/>
<path d="M4783 4074 c-8 -21 13 -42 28 -27 13 13 5 43 -11 43 -6 0 -13 -7 -17
-16z"/>
<path d="M919 3468 c-8 -15 -8 -27 0 -44 15 -34 41 -21 41 21 0 40 -25 54 -41
23z"/>
<path d="M1353 3483 c-18 -6 -17 -70 1 -76 18 -7 36 12 36 39 0 25 -19 43 -37
37z"/>
<path d="M640 3475 c-11 -13 -9 -15 15 -15 16 0 25 5 23 12 -7 19 -24 20 -38
3z"/>
<path d="M1067 3484 c-13 -13 -7 -24 14 -24 11 0 19 5 17 12 -5 14 -22 21 -31
12z"/>
<path d="M1503 3483 c-18 -6 -17 -70 1 -76 19 -8 36 12 36 44 0 27 -15 40 -37
32z"/>
<path d="M1700 3420 c0 -11 4 -20 10 -20 5 0 14 9 20 20 9 17 8 20 -10 20 -13
0 -20 -7 -20 -20z"/>
<path d="M2052 3478 c-27 -27 -3 -90 25 -67 7 7 13 22 13 34 0 30 -22 49 -38
33z"/>
<path d="M2286 3475 c-9 -9 -16 -23 -16 -30 0 -7 7 -21 16 -30 20 -20 44 -4
44 30 0 34 -24 50 -44 30z"/>
<path d="M2425 3461 c-8 -26 4 -51 26 -51 15 0 19 7 19 35 0 28 -4 35 -19 35
-11 0 -22 -8 -26 -19z"/>
<path d="M1030 3155 c0 -16 6 -25 15 -25 9 0 15 9 15 25 0 16 -6 25 -15 25 -9
0 -15 -9 -15 -25z"/>
<path d="M2693 3164 c-8 -21 13 -42 28 -27 13 13 5 43 -11 43 -6 0 -13 -7 -17
-16z"/>
<path d="M3531 3182 c-13 -25 8 -56 35 -50 29 5 27 62 -3 66 -13 2 -26 -4 -32
-16z"/>
<path d="M3733 3164 c-8 -21 13 -42 28 -27 13 13 5 43 -11 43 -6 0 -13 -7 -17
-16z"/>
<path d="M3943 3164 c-8 -21 13 -42 28 -27 13 13 5 43 -11 43 -6 0 -13 -7 -17
-16z"/>
<path d="M4593 3164 c-8 -21 13 -42 28 -27 13 13 5 43 -11 43 -6 0 -13 -7 -17
-16z"/>
<path d="M294 3165 c-7 -18 3 -35 22 -35 8 0 14 10 14 25 0 27 -27 35 -36 10z"/>
<path d="M415 3170 c-3 -5 3 -10 15 -10 12 0 18 5 15 10 -3 6 -10 10 -15 10
-5 0 -12 -4 -15 -10z"/>
<path d="M670 3155 c0 -16 6 -25 15 -25 9 0 15 9 15 25 0 16 -6 25 -15 25 -9
0 -15 -9 -15 -25z"/>
<path d="M1103 3164 c-8 -21 13 -42 28 -27 13 13 5 43 -11 43 -6 0 -13 -7 -17
-16z"/>
<path d="M1204 3165 c-7 -18 3 -35 22 -35 8 0 14 10 14 25 0 27 -27 35 -36 10z"/>
<path d="M1715 3170 c-3 -5 3 -10 14 -10 12 0 21 5 21 10 0 6 -6 10 -14 10 -8
0 -18 -4 -21 -10z"/>
<path d="M1930 3155 c0 -20 4 -26 18 -23 9 2 17 12 17 23 0 11 -8 21 -17 23
-14 3 -18 -3 -18 -23z"/>
<path d="M2145 3170 c-3 -5 3 -10 14 -10 12 0 21 5 21 10 0 6 -6 10 -14 10 -8
0 -18 -4 -21 -10z"/>
<path d="M2325 3170 c-3 -5 3 -10 15 -10 12 0 18 5 15 10 -3 6 -10 10 -15 10
-5 0 -12 -4 -15 -10z"/>
<path d="M2800 3155 c0 -16 6 -25 15 -25 9 0 15 9 15 25 0 16 -6 25 -15 25 -9
0 -15 -9 -15 -25z"/>
<path d="M3280 3170 c0 -5 9 -10 21 -10 11 0 17 5 14 10 -3 6 -13 10 -21 10
-8 0 -14 -4 -14 -10z"/>
<path d="M4243 3164 c-8 -21 13 -42 28 -27 13 13 5 43 -11 43 -6 0 -13 -7 -17
-16z"/>
<path d="M4665 3170 c-3 -5 3 -10 14 -10 12 0 21 5 21 10 0 6 -6 10 -14 10 -8
0 -18 -4 -21 -10z"/>
<path d="M4783 3164 c-8 -21 13 -42 28 -27 13 13 5 43 -11 43 -6 0 -13 -7 -17
-16z"/>
<path d="M250 2584 c0 -23 3 -25 33 -22 24 2 33 8 35 26 3 19 -1 22 -32 22
-32 0 -36 -3 -36 -26z"/>
<path d="M1950 2581 c0 -5 -3 -16 -6 -25 -4 -12 0 -16 16 -16 16 0 20 4 16 16
-3 9 -6 20 -6 25 0 5 -4 9 -10 9 -5 0 -10 -4 -10 -9z"/>
<path d="M2100 2585 c0 -23 4 -26 28 -23 19 2 27 9 27 23 0 14 -8 21 -27 23
-24 3 -28 0 -28 -23z"/>
<path d="M427 2574 c-13 -13 -7 -24 14 -24 11 0 19 5 17 12 -5 14 -22 21 -31
12z"/>
<path d="M555 2520 c-3 -5 -4 -14 0 -20 8 -13 35 -1 35 16 0 16 -26 19 -35 4z"/>
<path d="M1151 2567 c-25 -25 -5 -82 25 -70 8 3 14 19 14 38 0 35 -20 51 -39
32z"/>
<path d="M1520 2565 c-11 -13 -9 -15 15 -15 16 0 25 5 23 12 -7 19 -24 20 -38
3z"/>
<path d="M1030 2245 c0 -16 6 -25 15 -25 9 0 15 9 15 25 0 16 -6 25 -15 25 -9
0 -15 -9 -15 -25z"/>
<path d="M2693 2254 c-8 -21 13 -42 28 -27 13 13 5 43 -11 43 -6 0 -13 -7 -17
-16z"/>
<path d="M3531 2272 c-13 -25 8 -56 35 -50 29 5 27 62 -3 66 -13 2 -26 -4 -32
-16z"/>
<path d="M3733 2254 c-8 -21 13 -42 28 -27 13 13 5 43 -11 43 -6 0 -13 -7 -17
-16z"/>
<path d="M3943 2254 c-8 -21 13 -42 28 -27 13 13 5 43 -11 43 -6 0 -13 -7 -17
-16z"/>
<path d="M4593 2254 c-8 -21 13 -42 28 -27 13 13 5 43 -11 43 -6 0 -13 -7 -17
-16z"/>
<path d="M294 2255 c-7 -18 3 -35 22 -35 8 0 14 10 14 25 0 27 -27 35 -36 10z"/>
<path d="M415 2260 c-3 -5 3 -10 15 -10 12 0 18 5 15 10 -3 6 -10 10 -15 10
-5 0 -12 -4 -15 -10z"/>
<path d="M670 2245 c0 -16 6 -25 15 -25 9 0 15 9 15 25 0 16 -6 25 -15 25 -9
0 -15 -9 -15 -25z"/>
<path d="M1103 2254 c-8 -21 13 -42 28 -27 13 13 5 43 -11 43 -6 0 -13 -7 -17
-16z"/>
<path d="M1204 2255 c-7 -18 3 -35 22 -35 8 0 14 10 14 25 0 27 -27 35 -36 10z"/>
<path d="M1715 2260 c-3 -5 3 -10 14 -10 12 0 21 5 21 10 0 6 -6 10 -14 10 -8
0 -18 -4 -21 -10z"/>
<path d="M1930 2245 c0 -20 4 -26 18 -23 9 2 17 12 17 23 0 11 -8 21 -17 23
-14 3 -18 -3 -18 -23z"/>
<path d="M2145 2260 c-3 -5 3 -10 14 -10 12 0 21 5 21 10 0 6 -6 10 -14 10 -8
0 -18 -4 -21 -10z"/>
<path d="M2325 2260 c-3 -5 3 -10 15 -10 12 0 18 5 15 10 -3 6 -10 10 -15 10
-5 0 -12 -4 -15 -10z"/>
<path d="M2800 2245 c0 -16 6 -25 15 -25 9 0 15 9 15 25 0 16 -6 25 -15 25 -9
0 -15 -9 -15 -25z"/>
<path d="M3280 2260 c0 -5 9 -10 21 -10 11 0 17 5 14 10 -3 6 -13 10 -21 10
-8 0 -14 -4 -14 -10z"/>
<path d="M4243 2254 c-8 -21 13 -42 28 -27 13 13 5 43 -11 43 -6 0 -13 -7 -17
-16z"/>
<path d="M4665 2260 c-3 -5 3 -10 14 -10 12 0 21 5 21 10 0 6 -6 10 -14 10 -8
0 -18 -4 -21 -10z"/>
<path d="M4783 2254 c-8 -21 13 -42 28 -27 13 13 5 43 -11 43 -6 0 -13 -7 -17
-16z"/>
<path d="M2463 1663 c-18 -7 -16 -70 2 -77 14 -5 35 20 35 41 0 17 -25 41 -37
36z"/>
<path d="M547 1664 c-13 -13 -7 -24 14 -24 11 0 19 5 17 12 -5 14 -22 21 -31
12z"/>
<path d="M1113 1663 c-7 -3 -13 -20 -13 -40 0 -30 3 -34 23 -31 15 2 23 11 25
29 3 28 -15 49 -35 42z"/>
<path d="M1463 1663 c-18 -6 -17 -70 1 -76 19 -8 36 12 36 44 0 27 -15 40 -37
32z"/>
<path d="M2320 1655 c-11 -13 -9 -15 15 -15 16 0 25 5 23 12 -7 19 -24 20 -38
3z"/>
<path d="M2846 1655 c-9 -9 -16 -23 -16 -30 0 -7 7 -21 16 -30 20 -20 44 -4
44 30 0 34 -24 50 -44 30z"/>
<path d="M3212 1658 c-27 -27 -3 -90 25 -67 7 7 13 22 13 34 0 30 -22 49 -38
33z"/>
<path d="M3351 1657 c-25 -25 -5 -82 25 -70 8 3 14 19 14 38 0 35 -20 51 -39
32z"/>
<path d="M3640 1655 c-11 -13 -9 -15 15 -15 16 0 25 5 23 12 -7 19 -24 20 -38
3z"/>
<path d="M1030 1335 c0 -16 6 -25 15 -25 9 0 15 9 15 25 0 16 -6 25 -15 25 -9
0 -15 -9 -15 -25z"/>
<path d="M2693 1344 c-8 -21 13 -42 28 -27 13 13 5 43 -11 43 -6 0 -13 -7 -17
-16z"/>
<path d="M3531 1362 c-13 -25 8 -56 35 -50 29 5 27 62 -3 66 -13 2 -26 -4 -32
-16z"/>
<path d="M3733 1344 c-8 -21 13 -42 28 -27 13 13 5 43 -11 43 -6 0 -13 -7 -17
-16z"/>
<path d="M3943 1344 c-8 -21 13 -42 28 -27 13 13 5 43 -11 43 -6 0 -13 -7 -17
-16z"/>
<path d="M4593 1344 c-8 -21 13 -42 28 -27 13 13 5 43 -11 43 -6 0 -13 -7 -17
-16z"/>
<path d="M294 1345 c-7 -18 3 -35 22 -35 8 0 14 10 14 25 0 27 -27 35 -36 10z"/>
<path d="M415 1350 c-3 -5 3 -10 15 -10 12 0 18 5 15 10 -3 6 -10 10 -15 10
-5 0 -12 -4 -15 -10z"/>
<path d="M670 1335 c0 -16 6 -25 15 -25 9 0 15 9 15 25 0 16 -6 25 -15 25 -9
0 -15 -9 -15 -25z"/>
<path d="M1103 1344 c-8 -21 13 -42 28 -27 13 13 5 43 -11 43 -6 0 -13 -7 -17
-16z"/>
<path d="M1204 1345 c-7 -18 3 -35 22 -35 8 0 14 10 14 25 0 27 -27 35 -36 10z"/>
<path d="M1715 1350 c-3 -5 3 -10 14 -10 12 0 21 5 21 10 0 6 -6 10 -14 10 -8
0 -18 -4 -21 -10z"/>
<path d="M1930 1335 c0 -20 4 -26 18 -23 9 2 17 12 17 23 0 11 -8 21 -17 23
-14 3 -18 -3 -18 -23z"/>
<path d="M2145 1350 c-3 -5 3 -10 14 -10 12 0 21 5 21 10 0 6 -6 10 -14 10 -8
0 -18 -4 -21 -10z"/>
<path d="M2325 1350 c-3 -5 3 -10 15 -10 12 0 18 5 15 10 -3 6 -10 10 -15 10
-5 0 -12 -4 -15 -10z"/>
<path d="M2800 1335 c0 -16 6 -25 15 -25 9 0 15 9 15 25 0 16 -6 25 -15 25 -9
0 -15 -9 -15 -25z"/>
<path d="M3280 1350 c0 -5 9 -10 21 -10 11 0 17 5 14 10 -3 6 -13 10 -21 10
-8 0 -14 -4 -14 -10z"/>
<path d="M4243 1344 c-8 -21 13 -42 28 -27 13 13 5 43 -11 43 -6 0 -13 -7 -17
-16z"/>
<path d="M4665 1350 c-3 -5 3 -10 14 -10 12 0 21 5 21 10 0 6 -6 10 -14 10 -8
0 -18 -4 -21 -10z"/>
<path d="M4783 1344 c-8 -21 13 -42 28 -27 13 13 5 43 -11 43 -6 0 -13 -7 -17
-16z"/>
<path d="M947 574 c-16 -16 -6 -35 16 -32 12 2 22 10 22 18 0 16 -26 25 -38
14z"/>
<path d="M943 514 c-8 -22 11 -37 36 -29 25 8 28 30 5 39 -25 9 -34 7 -41 -10z"/>
<path d="M1516 532 c-8 -24 3 -54 18 -49 15 5 14 59 -1 64 -6 2 -14 -5 -17
-15z"/>
<path d="M2034 536 c-9 -23 0 -51 16 -51 10 0 15 10 15 29 0 32 -21 47 -31 22z"/>
<path d="M3126 532 c-8 -24 3 -54 18 -49 15 5 14 59 -1 64 -6 2 -14 -5 -17
-15z"/>
<path d="M534 509 c-3 -6 -2 -15 4 -21 13 -13 32 -2 32 18 0 16 -26 19 -36 3z"/>
<path d="M1084 536 c-9 -23 0 -51 16 -51 10 0 15 10 15 29 0 32 -21 47 -31 22z"/>
<path d="M1174 536 c-9 -23 0 -51 16 -51 10 0 15 10 15 29 0 32 -21 47 -31 22z"/>
<path d="M1434 536 c-9 -23 0 -51 16 -51 10 0 15 10 15 29 0 32 -21 47 -31 22z"/>
<path d="M1605 531 c-7 -23 3 -51 20 -51 7 0 16 7 19 16 9 23 -2 54 -19 54 -8
0 -16 -8 -20 -19z"/>
<path d="M1824 536 c-9 -23 0 -51 16 -51 10 0 15 10 15 29 0 32 -21 47 -31 22z"/>
<path d="M2217 544 c-13 -13 -7 -24 14 -24 11 0 19 5 17 12 -5 14 -22 21 -31
12z"/>
<path d="M2384 536 c-9 -23 0 -51 16 -51 10 0 15 10 15 29 0 32 -21 47 -31 22z"/>
<path d="M2646 535 c-4 -11 1 -15 19 -15 18 0 23 4 19 15 -4 8 -12 15 -19 15
-7 0 -15 -7 -19 -15z"/>
<path d="M2816 535 c-4 -11 1 -15 19 -15 18 0 23 4 19 15 -4 8 -12 15 -19 15
-7 0 -15 -7 -19 -15z"/>
<path d="M3034 509 c-8 -14 11 -33 25 -25 16 10 13 36 -3 36 -8 0 -18 -5 -22
-11z"/>
<path d="M3215 531 c-7 -23 3 -51 20 -51 7 0 16 7 19 16 9 23 -2 54 -19 54 -8
0 -16 -8 -20 -19z"/>
</g>
</svg>
